<svg width="133" height="40" viewBox="0 0 133 40" fill="none" xmlns="http://www.w3.org/2000/svg">
<path d="M26 17C26 20.4478 24.6303 23.7544 22.1924 26.1924C19.7544 28.6303 16.4478 30 13 30C9.55223 29.9999 6.24556 28.6303 3.80762 26.1924C1.36973 23.7544 3.63693e-05 20.4477 0 17H11.75C14.2016 18.3472 15.8209 20.9402 15.8115 24H15.8252C15.8205 20.9424 17.4358 18.348 19.8828 17H26ZM19 2C22.4477 2 25.7544 3.36978 28.1924 5.80762C30.6303 8.24554 31.9999 11.5523 32 15H19.8828C17.4358 13.6522 15.8205 11.0576 15.8252 8H15.8115C15.8115 11.0599 14.1956 13.6529 11.7471 15H6C6.00008 11.5523 7.36969 8.24554 9.80762 5.80762C12.2456 3.3697 15.5522 2.00006 19 2Z" fill="url(#paint0_linear_23587_8270)"/>
<path d="M59.5533 20.738C59.5533 21.4389 59.4623 22.0715 59.2804 22.6359C59.1076 23.1912 58.8756 23.6827 58.5845 24.1105C58.2934 24.5384 57.9523 24.9025 57.5611 25.2029C57.17 25.5033 56.7652 25.749 56.3467 25.9402C55.9283 26.1313 55.5007 26.2724 55.0641 26.3635C54.6365 26.4545 54.2317 26.5 53.8497 26.5H40.1637V22.9499H53.8497C54.5319 22.9499 55.0595 22.7497 55.4325 22.3492C55.8146 21.9486 56.0056 21.4116 56.0056 20.738C56.0056 20.4103 55.9556 20.1099 55.8555 19.8368C55.7554 19.5637 55.6099 19.327 55.4189 19.1268C55.2369 18.9265 55.0095 18.7718 54.7366 18.6625C54.4728 18.5533 54.1772 18.4987 53.8497 18.4987H45.69C45.1169 18.4987 44.4983 18.3986 43.8342 18.1983C43.1702 17.9889 42.5516 17.6567 41.9785 17.2016C41.4145 16.7464 40.9415 16.1502 40.5594 15.4129C40.1865 14.6756 40 13.7744 40 12.7094C40 11.6443 40.1865 10.7477 40.5594 10.0195C40.9415 9.28218 41.4145 8.68596 41.9785 8.23082C42.5516 7.76658 43.1702 7.43433 43.8342 7.23407C44.4983 7.02471 45.1169 6.92003 45.69 6.92003H57.7658V10.4701H45.69C45.0168 10.4701 44.4892 10.6749 44.1071 11.0845C43.7342 11.4941 43.5477 12.0358 43.5477 12.7094C43.5477 13.3921 43.7342 13.9337 44.1071 14.3342C44.4892 14.7256 45.0168 14.9213 45.69 14.9213H53.877C54.259 14.9304 54.6638 14.985 55.0914 15.0852C55.5189 15.1762 55.9419 15.3218 56.3604 15.5221C56.7879 15.7224 57.1927 15.9772 57.5748 16.2867C57.9568 16.5871 58.2934 16.9512 58.5845 17.3791C58.8847 17.8069 59.1212 18.2984 59.294 18.8537C59.4669 19.409 59.5533 20.0371 59.5533 20.738Z" fill="white"/>
<path d="M80.5519 26.5H75.435L68.285 19.591C67.8848 19.2269 67.6983 18.7718 67.7256 18.2256C67.7438 17.9707 67.8074 17.7341 67.9166 17.5156C68.0348 17.288 68.194 17.0969 68.3942 16.9421L74.8755 11.7126H80.5519L72.2011 18.4441L80.5519 26.5ZM66.825 26.5H63.2773V5.5H66.825V26.5Z" fill="white"/>
<path d="M98.3984 21.6118C98.3984 22.1034 98.312 22.6359 98.1392 23.2094C97.9664 23.7737 97.6844 24.3017 97.2932 24.7932C96.9111 25.2757 96.4063 25.6808 95.7786 26.0085C95.16 26.3362 94.405 26.5 93.5135 26.5H87.114C86.6228 26.5 86.0907 26.4135 85.5176 26.2406C84.9536 26.0676 84.426 25.79 83.9347 25.4077C83.4526 25.0163 83.0478 24.5111 82.7203 23.8921C82.3929 23.264 82.2291 22.5039 82.2291 21.6118C82.2291 21.1203 82.3155 20.5878 82.4884 20.0143C82.6612 19.4408 82.9387 18.9129 83.3207 18.4304C83.7119 17.9389 84.2167 17.5293 84.8353 17.2016C85.463 16.8739 86.2226 16.71 87.114 16.71H93.5135V20.0962H87.114C86.6319 20.0962 86.2589 20.2464 85.9951 20.5468C85.7313 20.8381 85.5994 21.2022 85.5994 21.6391C85.5994 22.1034 85.7495 22.4675 86.0497 22.7315C86.359 22.9863 86.7229 23.1138 87.1413 23.1138H93.5135C93.9957 23.1138 94.3686 22.9681 94.6324 22.6769C94.8962 22.3856 95.0281 22.0215 95.0281 21.5845V16.6281C95.0281 16.1638 94.8826 15.7952 94.5915 15.5221C94.3095 15.249 93.9502 15.1125 93.5135 15.1125H85.7222V11.7399H93.5135C94.0048 11.7399 94.5324 11.8264 95.0964 11.9993C95.6694 12.1723 96.1971 12.4545 96.6792 12.8459C97.1704 13.2282 97.5797 13.7334 97.9072 14.3615C98.2347 14.9805 98.3984 15.736 98.3984 16.6281V21.6118Z" fill="white"/>
<path d="M115.454 15.29H107.471C106.989 15.29 106.625 15.4129 106.38 15.6586C106.134 15.8953 106.011 16.2458 106.011 16.71V26.5H102.464V16.71C102.464 16.1001 102.541 15.554 102.696 15.0715C102.85 14.5891 103.055 14.1658 103.31 13.8017C103.573 13.4285 103.874 13.1144 104.21 12.8596C104.547 12.5956 104.897 12.3817 105.261 12.2178C105.634 12.054 106.007 11.9356 106.38 11.8628C106.762 11.7809 107.117 11.7399 107.444 11.7399H115.454V15.29Z" fill="white"/>
<path d="M133 21.6118C133 22.1034 132.914 22.6359 132.741 23.2094C132.568 23.7737 132.286 24.3017 131.895 24.7932C131.513 25.2757 131.008 25.6808 130.38 26.0085C129.762 26.3362 129.007 26.5 128.115 26.5H121.716C121.224 26.5 120.692 26.4135 120.119 26.2406C119.555 26.0676 119.028 25.79 118.536 25.4077C118.054 25.0163 117.649 24.5111 117.322 23.8921C116.994 23.264 116.831 22.5039 116.831 21.6118C116.831 21.1203 116.917 20.5878 117.09 20.0143C117.263 19.4408 117.54 18.9129 117.922 18.4304C118.313 17.9389 118.818 17.5293 119.437 17.2016C120.065 16.8739 120.824 16.71 121.716 16.71H128.115V20.0962H121.716C121.233 20.0962 120.86 20.2464 120.597 20.5468C120.333 20.8381 120.201 21.2022 120.201 21.6391C120.201 22.1034 120.351 22.4675 120.651 22.7315C120.961 22.9863 121.324 23.1138 121.743 23.1138H128.115C128.597 23.1138 128.97 22.9681 129.234 22.6769C129.498 22.3856 129.63 22.0215 129.63 21.5845V16.6281C129.63 16.1638 129.484 15.7952 129.193 15.5221C128.911 15.249 128.552 15.1125 128.115 15.1125H120.324V11.7399H128.115C128.606 11.7399 129.134 11.8264 129.698 11.9993C130.271 12.1723 130.799 12.4545 131.281 12.8459C131.772 13.2282 132.181 13.7334 132.509 14.3615C132.836 14.9805 133 15.736 133 16.6281V21.6118Z" fill="white"/>
<path d="M130.947 38.2616C130.518 38.2616 130.139 38.1665 129.81 37.9762C129.481 37.7802 129.223 37.5121 129.035 37.1719C128.847 36.8317 128.753 36.4396 128.753 35.9957C128.753 35.5517 128.847 35.1596 129.035 34.8195C129.223 34.4793 129.481 34.2141 129.81 34.0238C130.145 33.8277 130.527 33.7297 130.956 33.7297C131.361 33.7297 131.717 33.8306 132.022 34.0324C132.327 34.2285 132.565 34.511 132.736 34.88C132.912 35.2432 133 35.6728 133 36.1686H129.44L129.599 36.0389C129.599 36.3445 129.661 36.6097 129.784 36.8346C129.907 37.0595 130.075 37.2324 130.286 37.3535C130.498 37.4688 130.738 37.5265 131.009 37.5265C131.302 37.5265 131.546 37.4602 131.74 37.3276C131.94 37.1892 132.095 37.0162 132.207 36.8086L132.93 37.1373C132.812 37.3622 132.659 37.5611 132.471 37.7341C132.283 37.9013 132.06 38.031 131.802 38.1232C131.549 38.2155 131.264 38.2616 130.947 38.2616ZM129.652 35.6497L129.484 35.52H132.269L132.11 35.6497C132.11 35.396 132.057 35.1798 131.951 35.0011C131.846 34.8166 131.705 34.6782 131.529 34.5859C131.352 34.4879 131.156 34.4389 130.938 34.4389C130.727 34.4389 130.521 34.4879 130.321 34.5859C130.128 34.6782 129.966 34.8137 129.837 34.9924C129.713 35.1712 129.652 35.3903 129.652 35.6497Z" fill="#9CA3AF"/>
<path d="M127.353 38.2616C126.912 38.2616 126.572 38.1521 126.331 37.933C126.09 37.7081 125.97 37.3881 125.97 36.973V32.4843H126.807V36.8519C126.807 37.0652 126.86 37.2295 126.965 37.3449C127.077 37.4544 127.236 37.5092 127.441 37.5092C127.5 37.5092 127.565 37.4977 127.635 37.4746C127.705 37.4515 127.791 37.4054 127.891 37.3362L128.208 37.9762C128.055 38.0742 127.908 38.1463 127.767 38.1924C127.632 38.2386 127.494 38.2616 127.353 38.2616ZM125.221 34.5427V33.8335H128.058V34.5427H125.221Z" fill="#9CA3AF"/>
<path d="M123.814 38.1578L123.779 37.4054V35.9005C123.779 35.5834 123.741 35.3182 123.664 35.1049C123.594 34.8915 123.482 34.7301 123.33 34.6205C123.183 34.511 122.986 34.4562 122.739 34.4562C122.51 34.4562 122.31 34.5023 122.14 34.5946C121.976 34.6868 121.838 34.831 121.726 35.027L120.986 34.7503C121.092 34.5542 121.224 34.3813 121.382 34.2314C121.541 34.0757 121.732 33.9546 121.955 33.8681C122.178 33.7759 122.44 33.7297 122.739 33.7297C123.156 33.7297 123.503 33.8104 123.779 33.9719C124.055 34.1333 124.261 34.3668 124.396 34.6724C124.537 34.978 124.604 35.3557 124.598 35.8054L124.59 38.1578H123.814ZM122.519 38.2616C121.996 38.2616 121.588 38.1463 121.294 37.9157C121.006 37.6793 120.862 37.3535 120.862 36.9384C120.862 36.4944 121.012 36.1571 121.312 35.9265C121.617 35.6901 122.04 35.5719 122.581 35.5719H123.805V36.2205H122.81C122.404 36.2205 122.12 36.284 121.955 36.4108C121.791 36.5319 121.708 36.702 121.708 36.9211C121.708 37.1229 121.785 37.2814 121.937 37.3968C122.096 37.5063 122.313 37.5611 122.589 37.5611C122.83 37.5611 123.039 37.5121 123.215 37.4141C123.391 37.3103 123.529 37.1661 123.629 36.9816C123.729 36.7971 123.779 36.5867 123.779 36.3503H124.07C124.07 36.9384 123.941 37.4054 123.682 37.7514C123.429 38.0915 123.042 38.2616 122.519 38.2616Z" fill="#9CA3AF"/>
<path d="M113.554 38.1578V33.8335H114.338L114.374 34.4303C114.515 34.1996 114.691 34.0267 114.902 33.9114C115.114 33.7903 115.358 33.7297 115.634 33.7297C115.986 33.7297 116.286 33.8104 116.532 33.9719C116.779 34.1276 116.958 34.3668 117.07 34.6897C117.199 34.3784 117.381 34.142 117.616 33.9805C117.851 33.8133 118.13 33.7297 118.453 33.7297C118.953 33.7297 119.343 33.8912 119.625 34.2141C119.907 34.5312 120.045 35.0213 120.039 35.6843V38.1578H119.211V35.9438C119.211 35.5517 119.167 35.2548 119.079 35.053C118.997 34.8454 118.885 34.7013 118.744 34.6205C118.603 34.5398 118.439 34.4966 118.251 34.4908C117.922 34.4908 117.666 34.6148 117.484 34.8627C117.308 35.1106 117.22 35.4595 117.22 35.9092V38.1578H116.383V35.9438C116.383 35.5517 116.342 35.2548 116.259 35.053C116.177 34.8454 116.063 34.7013 115.916 34.6205C115.775 34.5398 115.61 34.4966 115.422 34.4908C115.093 34.4908 114.838 34.6148 114.656 34.8627C114.479 35.1106 114.391 35.4595 114.391 35.9092V38.1578H113.554Z" fill="#9CA3AF"/>
<path d="M111.027 38.2616C110.716 38.2616 110.437 38.2155 110.19 38.1232C109.949 38.031 109.744 37.907 109.573 37.7514C109.409 37.5957 109.285 37.4198 109.203 37.2238L109.926 36.9124C110.02 37.0912 110.161 37.2382 110.349 37.3535C110.537 37.4688 110.745 37.5265 110.974 37.5265C111.227 37.5265 111.435 37.4804 111.6 37.3881C111.764 37.2959 111.846 37.1661 111.846 36.9989C111.846 36.8375 111.785 36.7106 111.661 36.6184C111.538 36.5261 111.359 36.4512 111.124 36.3935L110.71 36.2897C110.299 36.1802 109.979 36.0159 109.749 35.7968C109.526 35.5777 109.415 35.3297 109.415 35.053C109.415 34.6321 109.553 34.3063 109.829 34.0757C110.105 33.845 110.513 33.7297 111.053 33.7297C111.318 33.7297 111.559 33.7672 111.776 33.8422C111.999 33.9171 112.187 34.0238 112.34 34.1622C112.499 34.3005 112.61 34.4649 112.675 34.6551L111.97 34.9665C111.899 34.7935 111.779 34.6667 111.609 34.5859C111.438 34.4995 111.239 34.4562 111.009 34.4562C110.774 34.4562 110.589 34.5081 110.454 34.6119C110.319 34.7099 110.252 34.8483 110.252 35.027C110.252 35.125 110.307 35.2202 110.419 35.3124C110.537 35.3989 110.707 35.471 110.93 35.5286L111.406 35.6411C111.694 35.7103 111.932 35.8169 112.12 35.9611C112.308 36.0995 112.449 36.258 112.543 36.4368C112.637 36.6097 112.684 36.7914 112.684 36.9816C112.684 37.2411 112.61 37.4688 112.463 37.6649C112.322 37.8551 112.125 38.0022 111.873 38.1059C111.626 38.2097 111.344 38.2616 111.027 38.2616Z" fill="#9CA3AF"/>
<path d="M106.57 38.2616C106.141 38.2616 105.762 38.1665 105.433 37.9762C105.104 37.7802 104.846 37.5121 104.658 37.1719C104.47 36.8317 104.376 36.4396 104.376 35.9957C104.376 35.5517 104.47 35.1596 104.658 34.8195C104.846 34.4793 105.104 34.2141 105.433 34.0238C105.768 33.8277 106.15 33.7297 106.579 33.7297C106.984 33.7297 107.339 33.8306 107.645 34.0324C107.95 34.2285 108.188 34.511 108.359 34.88C108.535 35.2432 108.623 35.6728 108.623 36.1686H105.063L105.222 36.0389C105.222 36.3445 105.283 36.6097 105.407 36.8346C105.53 37.0595 105.698 37.2324 105.909 37.3535C106.121 37.4688 106.361 37.5265 106.632 37.5265C106.925 37.5265 107.169 37.4602 107.363 37.3276C107.563 37.1892 107.718 37.0162 107.83 36.8086L108.552 37.1373C108.435 37.3622 108.282 37.5611 108.094 37.7341C107.906 37.9013 107.683 38.031 107.425 38.1232C107.172 38.2155 106.887 38.2616 106.57 38.2616ZM105.275 35.6497L105.107 35.52H107.892L107.733 35.6497C107.733 35.396 107.68 35.1798 107.574 35.0011C107.469 34.8166 107.328 34.6782 107.151 34.5859C106.975 34.4879 106.778 34.4389 106.561 34.4389C106.35 34.4389 106.144 34.4879 105.944 34.5859C105.75 34.6782 105.589 34.8137 105.46 34.9924C105.336 35.1712 105.275 35.3903 105.275 35.6497Z" fill="#9CA3AF"/>
<path d="M102.626 38.1578V32.1038H103.463V38.1578H102.626Z" fill="#9CA3AF"/>
<path d="M100.788 38.1578L100.753 37.4054V35.9005C100.753 35.5834 100.715 35.3182 100.638 35.1049C100.568 34.8915 100.456 34.7301 100.303 34.6205C100.157 34.511 99.9598 34.4562 99.7131 34.4562C99.484 34.4562 99.2843 34.5023 99.1139 34.5946C98.9495 34.6868 98.8114 34.831 98.6998 35.027L97.9597 34.7503C98.0654 34.5542 98.1976 34.3813 98.3562 34.2314C98.5148 34.0757 98.7057 33.9546 98.9289 33.8681C99.1521 33.7759 99.4135 33.7297 99.7131 33.7297C100.13 33.7297 100.477 33.8104 100.753 33.9719C101.029 34.1333 101.235 34.3668 101.37 34.6724C101.511 34.978 101.578 35.3557 101.572 35.8054L101.563 38.1578H100.788ZM99.4928 38.2616C98.97 38.2616 98.5618 38.1463 98.2681 37.9157C97.9802 37.6793 97.8363 37.3535 97.8363 36.9384C97.8363 36.4944 97.9861 36.1571 98.2857 35.9265C98.5911 35.6901 99.0141 35.5719 99.5545 35.5719H100.779V36.2205H99.7836C99.3783 36.2205 99.0934 36.284 98.9289 36.4108C98.7644 36.5319 98.6822 36.702 98.6822 36.9211C98.6822 37.1229 98.7586 37.2814 98.9113 37.3968C99.0699 37.5063 99.2872 37.5611 99.5633 37.5611C99.8042 37.5611 100.013 37.5121 100.189 37.4141C100.365 37.3103 100.503 37.1661 100.603 36.9816C100.703 36.7971 100.753 36.5867 100.753 36.3503H101.044C101.044 36.9384 100.914 37.4054 100.656 37.7514C100.403 38.0915 100.016 38.2616 99.4928 38.2616Z" fill="#9CA3AF"/>
<path d="M94.8819 38.2616C94.5529 38.2616 94.2533 38.2241 93.9831 38.1492C93.7188 38.0742 93.4868 37.9733 93.287 37.8465C93.0932 37.7139 92.9317 37.5668 92.8024 37.4054C92.6732 37.244 92.5821 37.0739 92.5293 36.8951L93.3663 36.627C93.4545 36.8634 93.6219 37.0681 93.8686 37.2411C94.1153 37.4141 94.4178 37.5034 94.7761 37.5092C95.2108 37.5092 95.5515 37.4256 95.7982 37.2584C96.0508 37.0854 96.1771 36.8577 96.1771 36.5751C96.1771 36.3157 96.0685 36.1052 95.8511 35.9438C95.6338 35.7766 95.3459 35.6497 94.9876 35.5632L94.2739 35.3816C93.9919 35.3067 93.7335 35.2 93.4985 35.0616C93.2694 34.9232 93.0873 34.7474 92.9522 34.5341C92.8171 34.3207 92.7496 34.0641 92.7496 33.7643C92.7496 33.2108 92.9317 32.7784 93.2959 32.467C93.6659 32.1557 94.1975 32 94.8907 32C95.2901 32 95.6367 32.0634 95.9304 32.1903C96.2241 32.3114 96.465 32.4728 96.6529 32.6746C96.8468 32.8764 96.9848 33.0984 97.0671 33.3405L96.23 33.6173C96.1301 33.3578 95.9598 33.1503 95.7189 32.9946C95.4781 32.8332 95.1815 32.7524 94.829 32.7524C94.4589 32.7524 94.1652 32.8389 93.9479 33.0119C93.7364 33.1849 93.6307 33.4213 93.6307 33.7211C93.6307 33.9748 93.7129 34.1708 93.8774 34.3092C94.0477 34.4418 94.2739 34.5427 94.5559 34.6119L95.2696 34.7849C95.8452 34.9232 96.2887 35.1539 96.6001 35.4768C96.9173 35.7939 97.0759 36.1427 97.0759 36.5232C97.0759 36.8519 96.9907 37.1488 96.8203 37.4141C96.6559 37.6735 96.4091 37.8811 96.0802 38.0368C95.7571 38.1867 95.3577 38.2616 94.8819 38.2616Z" fill="#9CA3AF"/>
<path d="M86.3158 39.9914C86.1866 39.9914 86.0426 39.9683 85.884 39.9222C85.7313 39.876 85.5727 39.8155 85.4082 39.7405L85.7166 39.0659C85.8459 39.1236 85.9575 39.1668 86.0515 39.1957C86.1513 39.2245 86.2306 39.2389 86.2894 39.2389C86.4362 39.2389 86.5596 39.1986 86.6594 39.1178C86.7652 39.0371 86.8503 38.9247 86.915 38.7805L87.426 37.5957L88.9944 33.8335H89.8931L87.8049 38.6941C87.6933 38.9593 87.5758 39.1899 87.4524 39.3859C87.3291 39.582 87.1764 39.7319 86.9943 39.8357C86.818 39.9395 86.5919 39.9914 86.3158 39.9914ZM87.1969 38.1578L85.2673 33.8335H86.1572L87.752 37.587L88.0075 38.1578H87.1969Z" fill="#9CA3AF"/>
<path d="M80.7273 38.1578V32.1038H81.5644V37.3535L81.5204 38.1578H80.7273ZM83.0095 38.2616C82.6394 38.2616 82.3163 38.1665 82.0402 37.9762C81.77 37.7859 81.5615 37.5207 81.4146 37.1805C81.2678 36.8404 81.1943 36.4454 81.1943 35.9957C81.1943 35.5402 81.2678 35.1452 81.4146 34.8108C81.5615 34.4706 81.77 34.2054 82.0402 34.0151C82.3163 33.8249 82.6394 33.7297 83.0095 33.7297C83.403 33.7297 83.7496 33.8249 84.0492 34.0151C84.3488 34.2054 84.5808 34.4706 84.7453 34.8108C84.9156 35.1452 85.0008 35.5402 85.0008 35.9957C85.0008 36.4454 84.9156 36.8404 84.7453 37.1805C84.5808 37.5207 84.3488 37.7859 84.0492 37.9762C83.7496 38.1665 83.403 38.2616 83.0095 38.2616ZM82.8068 37.5178C83.0711 37.5178 83.3032 37.4544 83.5029 37.3276C83.7026 37.195 83.8583 37.0162 83.9699 36.7914C84.0874 36.5607 84.1461 36.2955 84.1461 35.9957C84.1461 35.6959 84.0903 35.4335 83.9787 35.2086C83.8671 34.978 83.7114 34.7993 83.5117 34.6724C83.312 34.5398 83.0799 34.4735 82.8156 34.4735C82.5748 34.4735 82.3574 34.5398 82.1636 34.6724C81.9756 34.7993 81.8287 34.978 81.723 35.2086C81.6173 35.4393 81.5644 35.7016 81.5644 35.9957C81.5644 36.2955 81.6173 36.5607 81.723 36.7914C81.8287 37.0162 81.9756 37.195 82.1636 37.3276C82.3515 37.4544 82.566 37.5178 82.8068 37.5178Z" fill="#9CA3AF"/>
<path d="M76.0489 38.2616C75.7376 38.2616 75.4586 38.2155 75.2119 38.1232C74.971 38.031 74.7654 37.907 74.5951 37.7514C74.4306 37.5957 74.3073 37.4198 74.225 37.2238L74.9475 36.9124C75.0415 37.0912 75.1825 37.2382 75.3705 37.3535C75.5584 37.4688 75.767 37.5265 75.9961 37.5265C76.2487 37.5265 76.4572 37.4804 76.6217 37.3881C76.7861 37.2959 76.8684 37.1661 76.8684 36.9989C76.8684 36.8375 76.8067 36.7106 76.6833 36.6184C76.56 36.5261 76.3808 36.4512 76.1459 36.3935L75.7317 36.2897C75.3205 36.1802 75.0004 36.0159 74.7713 35.7968C74.5481 35.5777 74.4365 35.3297 74.4365 35.053C74.4365 34.6321 74.5745 34.3063 74.8506 34.0757C75.1267 33.845 75.5349 33.7297 76.0754 33.7297C76.3397 33.7297 76.5806 33.7672 76.7979 33.8422C77.0211 33.9171 77.2091 34.0238 77.3618 34.1622C77.5204 34.3005 77.632 34.4649 77.6966 34.6551L76.9917 34.9665C76.9213 34.7935 76.8008 34.6667 76.6305 34.5859C76.4601 34.4995 76.2604 34.4562 76.0313 34.4562C75.7964 34.4562 75.6113 34.5081 75.4762 34.6119C75.3411 34.7099 75.2736 34.8483 75.2736 35.027C75.2736 35.125 75.3294 35.2202 75.441 35.3124C75.5584 35.3989 75.7288 35.471 75.952 35.5286L76.4278 35.6411C76.7157 35.7103 76.9536 35.8169 77.1415 35.9611C77.3295 36.0995 77.4705 36.258 77.5645 36.4368C77.6585 36.6097 77.7054 36.7914 77.7054 36.9816C77.7054 37.2411 77.632 37.4688 77.4852 37.6649C77.3442 37.8551 77.1474 38.0022 76.8948 38.1059C76.6481 38.2097 76.3661 38.2616 76.0489 38.2616Z" fill="#9CA3AF"/>
<path d="M72.7906 38.2616C72.3501 38.2616 72.0094 38.1521 71.7686 37.933C71.5277 37.7081 71.4073 37.3881 71.4073 36.973V32.4843H72.2444V36.8519C72.2444 37.0652 72.2972 37.2295 72.403 37.3449C72.5146 37.4544 72.6732 37.5092 72.8788 37.5092C72.9375 37.5092 73.0021 37.4977 73.0726 37.4746C73.1431 37.4515 73.2283 37.4054 73.3281 37.3362L73.6453 37.9762C73.4926 38.0742 73.3458 38.1463 73.2048 38.1924C73.0697 38.2386 72.9316 38.2616 72.7906 38.2616ZM70.6583 34.5427V33.8335H73.4955V34.5427H70.6583Z" fill="#9CA3AF"/>
<path d="M66.151 38.1578V33.8335H66.9352L66.9881 34.6292V38.1578H66.151ZM69.1997 38.1578V35.9438H70.0367V38.1578H69.1997ZM69.1997 35.9438C69.1997 35.5517 69.1527 35.2548 69.0587 35.053C68.9706 34.8454 68.8443 34.7013 68.6798 34.6205C68.5212 34.5398 68.3362 34.4966 68.1247 34.4908C67.7664 34.4908 67.4874 34.6148 67.2876 34.8627C67.0879 35.1106 66.9881 35.4595 66.9881 35.9092H66.6268C66.6268 35.4537 66.6943 35.0645 66.8295 34.7416C66.9704 34.413 67.1672 34.1622 67.4198 33.9892C67.6783 33.8162 67.9837 33.7297 68.3362 33.7297C68.6827 33.7297 68.9823 33.7989 69.2349 33.9373C69.4934 34.0757 69.6902 34.2919 69.8253 34.5859C69.9662 34.8742 70.0367 35.2548 70.0367 35.7276V35.9438H69.1997Z" fill="#9CA3AF"/>
<path d="M63.271 38.2616C62.8422 38.2616 62.4633 38.1665 62.1344 37.9762C61.8054 37.7802 61.547 37.5121 61.359 37.1719C61.171 36.8317 61.077 36.4396 61.077 35.9957C61.077 35.5517 61.171 35.1596 61.359 34.8195C61.547 34.4793 61.8054 34.2141 62.1344 34.0238C62.4692 33.8277 62.851 33.7297 63.2798 33.7297C63.6852 33.7297 64.0405 33.8306 64.346 34.0324C64.6515 34.2285 64.8894 34.511 65.0597 34.88C65.2359 35.2432 65.324 35.6728 65.324 36.1686H61.7643L61.9229 36.0389C61.9229 36.3445 61.9846 36.6097 62.108 36.8346C62.2313 37.0595 62.3987 37.2324 62.6102 37.3535C62.8217 37.4688 63.0625 37.5265 63.3327 37.5265C63.6264 37.5265 63.8702 37.4602 64.064 37.3276C64.2638 37.1892 64.4194 37.0162 64.531 36.8086L65.2536 37.1373C65.1361 37.3622 64.9833 37.5611 64.7954 37.7341C64.6074 37.9013 64.3842 38.031 64.1257 38.1232C63.8731 38.2155 63.5882 38.2616 63.271 38.2616ZM61.9758 35.6497L61.8084 35.52H64.5927L64.4341 35.6497C64.4341 35.396 64.3812 35.1798 64.2755 35.0011C64.1698 34.8166 64.0288 34.6782 63.8526 34.5859C63.6763 34.4879 63.4796 34.4389 63.2622 34.4389C63.0508 34.4389 62.8452 34.4879 62.6454 34.5859C62.4516 34.6782 62.29 34.8137 62.1608 34.9924C62.0375 35.1712 61.9758 35.3903 61.9758 35.6497Z" fill="#9CA3AF"/>
<path d="M57.9418 40C57.6481 40 57.3809 39.9712 57.14 39.9135C56.8992 39.8616 56.6965 39.8011 56.532 39.7319C56.3676 39.6627 56.2442 39.6022 56.162 39.5503L56.4792 38.8843C56.5555 38.9304 56.6642 38.9823 56.8052 39.04C56.9462 39.1034 57.1106 39.1553 57.2986 39.1957C57.4866 39.2418 57.6951 39.2649 57.9242 39.2649C58.1944 39.2649 58.4353 39.2101 58.6467 39.1005C58.8582 38.9968 59.0227 38.8324 59.1402 38.6076C59.2635 38.3827 59.3252 38.0944 59.3252 37.7427V33.8335H60.1623V37.7254C60.1623 38.2213 60.0653 38.6364 59.8715 38.9708C59.6835 39.311 59.4221 39.5676 59.0873 39.7405C58.7583 39.9135 58.3765 40 57.9418 40ZM57.8625 38.0973C57.4631 38.0973 57.1136 38.0079 56.814 37.8292C56.5203 37.6447 56.2883 37.391 56.1179 37.0681C55.9534 36.7395 55.8712 36.3618 55.8712 35.9351C55.8712 35.4912 55.9534 35.1049 56.1179 34.7762C56.2883 34.4476 56.5203 34.191 56.814 34.0065C57.1136 33.822 57.4631 33.7297 57.8625 33.7297C58.2267 33.7297 58.5439 33.822 58.8141 34.0065C59.0902 34.191 59.3017 34.4504 59.4485 34.7849C59.6013 35.1135 59.6776 35.4998 59.6776 35.9438C59.6776 36.3704 59.6013 36.7481 59.4485 37.0768C59.3017 37.3996 59.0902 37.6505 58.8141 37.8292C58.5439 38.0079 58.2267 38.0973 57.8625 38.0973ZM58.074 37.4054C58.3207 37.4054 58.5351 37.342 58.7172 37.2151C58.8993 37.0825 59.0432 36.9067 59.149 36.6876C59.2547 36.4627 59.3076 36.2061 59.3076 35.9178C59.3076 35.6295 59.2547 35.3759 59.149 35.1568C59.0432 34.9377 58.8964 34.7676 58.7084 34.6465C58.5263 34.5196 58.3119 34.4562 58.0652 34.4562C57.8067 34.4562 57.5776 34.5196 57.3779 34.6465C57.1841 34.7676 57.0313 34.9377 56.9197 35.1568C56.8081 35.3759 56.7523 35.6295 56.7523 35.9178C56.7523 36.2061 56.8081 36.4627 56.9197 36.6876C57.0372 36.9067 57.1929 37.0825 57.3867 37.2151C57.5864 37.342 57.8155 37.4054 58.074 37.4054Z" fill="#9CA3AF"/>
<path d="M54.6049 38.1578L52.1642 32.1038H53.0453L55.5301 38.1578H54.6049ZM49.6354 38.1578L52.1202 32.1038H53.0013L50.5606 38.1578H49.6354ZM50.8073 36.5405V35.7795H54.3582V36.5405H50.8073Z" fill="#9CA3AF"/>
<path d="M45.754 38.1578V32.1038H46.6175V38.1578H45.754Z" fill="#9CA3AF"/>
<path d="M43.9695 38.1578L41.5288 32.1038H42.4099L44.8947 38.1578H43.9695ZM39 38.1578L41.4848 32.1038H42.3659L39.9252 38.1578H39ZM40.1719 36.5405V35.7795H43.7228V36.5405H40.1719Z" fill="#9CA3AF"/>
<defs>
<linearGradient id="paint0_linear_23587_8270" x1="28.3073" y1="25.2301" x2="15.5015" y2="0.930133" gradientUnits="userSpaceOnUse">
<stop stop-color="#7843FD"/>
<stop offset="0.360577" stop-color="#CB20A2"/>
<stop offset="0.644231" stop-color="#EE1082"/>
<stop offset="1" stop-color="#D68200"/>
</linearGradient>
</defs>
</svg>
