<svg width="133" height="41" viewBox="0 0 133 41" fill="none" xmlns="http://www.w3.org/2000/svg">
<path d="M26 17.0146C26 20.4625 24.6304 23.769 22.1924 26.207C19.7544 28.645 16.4479 30.0146 13 30.0146C9.55223 30.0146 6.24556 28.645 3.80762 26.207C1.36978 23.7691 5.20592e-07 20.4624 0 17.0146H11.75C14.2016 18.3619 15.8209 20.9548 15.8115 24.0146H15.8252C15.8205 20.957 17.4358 18.3626 19.8828 17.0146H26ZM19 2.01465C22.4477 2.01465 25.7544 3.38443 28.1924 5.82227C30.6303 8.26019 31.9999 11.5669 32 15.0146H19.8828C17.4358 13.6668 15.8205 11.0723 15.8252 8.01465H15.8115C15.8115 11.0745 14.1956 13.6675 11.7471 15.0146H6C6.00008 11.5669 7.36969 8.26019 9.80762 5.82227C12.2456 3.38435 15.5522 2.01471 19 2.01465Z" fill="url(#paint0_linear_23886_8271)"/>
<path d="M59.5533 20.7526C59.5533 21.4535 59.4623 22.0862 59.2804 22.6505C59.1076 23.2058 58.8756 23.6974 58.5845 24.1252C58.2934 24.553 57.9523 24.9171 57.5611 25.2175C57.17 25.5179 56.7652 25.7637 56.3467 25.9548C55.9283 26.146 55.5007 26.2871 55.0641 26.3781C54.6365 26.4691 54.2317 26.5146 53.8497 26.5146H40.1637V22.9646H53.8497C54.5319 22.9646 55.0595 22.7643 55.4325 22.3638C55.8146 21.9633 56.0056 21.4262 56.0056 20.7526C56.0056 20.4249 55.9556 20.1245 55.8555 19.8514C55.7554 19.5784 55.6099 19.3417 55.4189 19.1414C55.2369 18.9412 55.0095 18.7864 54.7366 18.6772C54.4728 18.568 54.1772 18.5133 53.8497 18.5133H45.69C45.1169 18.5133 44.4983 18.4132 43.8342 18.213C43.1702 18.0036 42.5516 17.6713 41.9785 17.2162C41.4145 16.7611 40.9415 16.1648 40.5594 15.4275C40.1865 14.6902 40 13.789 40 12.724C40 11.659 40.1865 10.7624 40.5594 10.0342C40.9415 9.29683 41.4145 8.7006 41.9785 8.24547C42.5516 7.78123 43.1702 7.44898 43.8342 7.24872C44.4983 7.03936 45.1169 6.93467 45.69 6.93467H57.7658V10.4847H45.69C45.0168 10.4847 44.4892 10.6896 44.1071 11.0992C43.7342 11.5088 43.5477 12.0504 43.5477 12.724C43.5477 13.4067 43.7342 13.9483 44.1071 14.3488C44.4892 14.7403 45.0168 14.936 45.69 14.936H53.877C54.259 14.9451 54.6638 14.9997 55.0914 15.0998C55.5189 15.1909 55.9419 15.3365 56.3604 15.5368C56.7879 15.737 57.1927 15.9919 57.5748 16.3014C57.9568 16.6018 58.2934 16.9659 58.5845 17.3937C58.8847 17.8215 59.1212 18.3131 59.294 18.8684C59.4669 19.4236 59.5533 20.0517 59.5533 20.7526Z" fill="#07090F"/>
<path d="M80.5519 26.5146H75.435L68.285 19.6057C67.8848 19.2416 67.6983 18.7864 67.7256 18.2403C67.7438 17.9854 67.8074 17.7487 67.9166 17.5303C68.0349 17.3027 68.194 17.1115 68.3942 16.9568L74.8755 11.7273H80.5519L72.2011 18.4587L80.5519 26.5146ZM66.825 26.5146H63.2773V5.51465H66.825V26.5146Z" fill="#07090F"/>
<path d="M98.3984 21.6265C98.3984 22.118 98.312 22.6505 98.1392 23.224C97.9664 23.7884 97.6844 24.3163 97.2932 24.8079C96.9111 25.2903 96.4063 25.6954 95.7786 26.0231C95.16 26.3508 94.405 26.5146 93.5135 26.5146H87.114C86.6228 26.5146 86.0906 26.4282 85.5176 26.2552C84.9536 26.0823 84.426 25.8046 83.9347 25.4223C83.4526 25.0309 83.0478 24.5257 82.7203 23.9067C82.3929 23.2786 82.2291 22.5185 82.2291 21.6265C82.2291 21.1349 82.3155 20.6024 82.4884 20.029C82.6612 19.4555 82.9387 18.9275 83.3207 18.4451C83.7119 17.9535 84.2167 17.5439 84.8353 17.2162C85.463 16.8885 86.2226 16.7247 87.114 16.7247H93.5135V20.1109H87.114C86.6319 20.1109 86.2589 20.2611 85.9951 20.5615C85.7313 20.8527 85.5994 21.2169 85.5994 21.6538C85.5994 22.118 85.7495 22.4821 86.0497 22.7461C86.359 23.001 86.7229 23.1284 87.1413 23.1284H93.5135C93.9957 23.1284 94.3686 22.9828 94.6324 22.6915C94.8962 22.4002 95.0281 22.0361 95.0281 21.5992V16.6427C95.0281 16.1785 94.8826 15.8098 94.5915 15.5368C94.3095 15.2637 93.9502 15.1271 93.5135 15.1271H85.7222V11.7546H93.5135C94.0048 11.7546 94.5324 11.841 95.0964 12.014C95.6694 12.1869 96.1971 12.4691 96.6792 12.8606C97.1704 13.2429 97.5797 13.7481 97.9072 14.3762C98.2347 14.9951 98.3984 15.7507 98.3984 16.6427V21.6265Z" fill="#07090F"/>
<path d="M115.454 15.3046H107.471C106.989 15.3046 106.625 15.4275 106.38 15.6733C106.134 15.91 106.011 16.2604 106.011 16.7247V26.5146H102.464V16.7247C102.464 16.1148 102.541 15.5686 102.696 15.0862C102.85 14.6037 103.055 14.1804 103.31 13.8163C103.573 13.4431 103.874 13.1291 104.21 12.8742C104.547 12.6102 104.897 12.3963 105.261 12.2325C105.634 12.0686 106.007 11.9503 106.38 11.8775C106.762 11.7955 107.117 11.7546 107.444 11.7546H115.454V15.3046Z" fill="#07090F"/>
<path d="M133 21.6265C133 22.118 132.914 22.6505 132.741 23.224C132.568 23.7884 132.286 24.3163 131.895 24.8079C131.513 25.2903 131.008 25.6954 130.38 26.0231C129.762 26.3508 129.007 26.5146 128.115 26.5146H121.716C121.224 26.5146 120.692 26.4282 120.119 26.2552C119.555 26.0823 119.028 25.8046 118.536 25.4223C118.054 25.0309 117.649 24.5257 117.322 23.9067C116.994 23.2786 116.831 22.5185 116.831 21.6265C116.831 21.1349 116.917 20.6024 117.09 20.029C117.263 19.4555 117.54 18.9275 117.922 18.4451C118.313 17.9535 118.818 17.5439 119.437 17.2162C120.065 16.8885 120.824 16.7247 121.716 16.7247H128.115V20.1109H121.716C121.233 20.1109 120.86 20.2611 120.597 20.5615C120.333 20.8527 120.201 21.2169 120.201 21.6538C120.201 22.118 120.351 22.4821 120.651 22.7461C120.961 23.001 121.324 23.1284 121.743 23.1284H128.115C128.597 23.1284 128.97 22.9828 129.234 22.6915C129.498 22.4002 129.63 22.0361 129.63 21.5992V16.6427C129.63 16.1785 129.484 15.8098 129.193 15.5368C128.911 15.2637 128.552 15.1271 128.115 15.1271H120.324V11.7546H128.115C128.606 11.7546 129.134 11.841 129.698 12.014C130.271 12.1869 130.799 12.4691 131.281 12.8606C131.772 13.2429 132.181 13.7481 132.509 14.3762C132.836 14.9951 133 15.7507 133 16.6427V21.6265Z" fill="#07090F"/>
<path d="M130.947 38.2763C130.518 38.2763 130.139 38.1811 129.81 37.9909C129.481 37.7948 129.223 37.5267 129.035 37.1865C128.847 36.8464 128.753 36.4543 128.753 36.0103C128.753 35.5664 128.847 35.1743 129.035 34.8341C129.223 34.4939 129.481 34.2287 129.81 34.0384C130.145 33.8424 130.527 33.7444 130.956 33.7444C131.361 33.7444 131.716 33.8453 132.022 34.0471C132.327 34.2431 132.565 34.5256 132.736 34.8946C132.912 35.2579 133 35.6874 133 36.1833H129.44L129.599 36.0536C129.599 36.3592 129.661 36.6244 129.784 36.8492C129.907 37.0741 130.075 37.2471 130.286 37.3682C130.498 37.4835 130.738 37.5411 131.009 37.5411C131.302 37.5411 131.546 37.4748 131.74 37.3422C131.94 37.2038 132.095 37.0309 132.207 36.8233L132.93 37.1519C132.812 37.3768 132.659 37.5757 132.471 37.7487C132.283 37.9159 132.06 38.0456 131.802 38.1379C131.549 38.2301 131.264 38.2763 130.947 38.2763ZM129.652 35.6644L129.484 35.5346H132.269L132.11 35.6644C132.11 35.4107 132.057 35.1945 131.951 35.0157C131.846 34.8312 131.705 34.6928 131.529 34.6006C131.352 34.5026 131.156 34.4536 130.938 34.4536C130.727 34.4536 130.521 34.5026 130.321 34.6006C130.128 34.6928 129.966 34.8283 129.837 35.0071C129.713 35.1858 129.652 35.4049 129.652 35.6644Z" fill="#374151"/>
<path d="M127.353 38.2763C126.912 38.2763 126.572 38.1667 126.331 37.9476C126.09 37.7228 125.97 37.4028 125.97 36.9876V32.499H126.807V36.8665C126.807 37.0799 126.86 37.2442 126.965 37.3595C127.077 37.4691 127.236 37.5238 127.441 37.5238C127.5 37.5238 127.565 37.5123 127.635 37.4892C127.705 37.4662 127.791 37.4201 127.891 37.3509L128.208 37.9909C128.055 38.0889 127.908 38.161 127.767 38.2071C127.632 38.2532 127.494 38.2763 127.353 38.2763ZM125.221 34.5573V33.8482H128.058V34.5573H125.221Z" fill="#374151"/>
<path d="M123.814 38.1725L123.779 37.4201V35.9152C123.779 35.5981 123.741 35.3328 123.664 35.1195C123.594 34.9062 123.482 34.7447 123.33 34.6352C123.183 34.5256 122.986 34.4709 122.739 34.4709C122.51 34.4709 122.31 34.517 122.14 34.6092C121.976 34.7015 121.838 34.8456 121.726 35.0417L120.986 34.7649C121.092 34.5689 121.224 34.3959 121.382 34.246C121.541 34.0903 121.732 33.9692 121.955 33.8828C122.178 33.7905 122.44 33.7444 122.739 33.7444C123.156 33.7444 123.503 33.8251 123.779 33.9865C124.055 34.148 124.261 34.3815 124.396 34.6871C124.537 34.9927 124.604 35.3703 124.598 35.8201L124.59 38.1725H123.814ZM122.519 38.2763C121.996 38.2763 121.588 38.161 121.294 37.9303C121.006 37.6939 120.862 37.3682 120.862 36.953C120.862 36.5091 121.012 36.1718 121.312 35.9411C121.617 35.7047 122.04 35.5865 122.581 35.5865H123.805V36.2352H122.81C122.404 36.2352 122.12 36.2986 121.955 36.4255C121.791 36.5465 121.708 36.7166 121.708 36.9357C121.708 37.1375 121.785 37.2961 121.937 37.4114C122.096 37.521 122.313 37.5757 122.589 37.5757C122.83 37.5757 123.039 37.5267 123.215 37.4287C123.391 37.3249 123.529 37.1808 123.629 36.9963C123.729 36.8118 123.779 36.6013 123.779 36.3649H124.07C124.07 36.953 123.941 37.4201 123.682 37.766C123.429 38.1062 123.042 38.2763 122.519 38.2763Z" fill="#374151"/>
<path d="M113.554 38.1725V33.8482H114.338L114.374 34.4449C114.515 34.2143 114.691 34.0413 114.902 33.926C115.114 33.8049 115.358 33.7444 115.634 33.7444C115.986 33.7444 116.286 33.8251 116.532 33.9865C116.779 34.1422 116.958 34.3815 117.07 34.7044C117.199 34.393 117.381 34.1566 117.616 33.9952C117.851 33.828 118.13 33.7444 118.453 33.7444C118.953 33.7444 119.343 33.9058 119.625 34.2287C119.907 34.5458 120.045 35.0359 120.039 35.699V38.1725H119.211V35.9584C119.211 35.5664 119.167 35.2694 119.079 35.0676C118.997 34.8601 118.885 34.7159 118.744 34.6352C118.603 34.5545 118.439 34.5112 118.251 34.5055C117.922 34.5055 117.666 34.6294 117.484 34.8773C117.308 35.1253 117.22 35.4741 117.22 35.9238V38.1725H116.383V35.9584C116.383 35.5664 116.342 35.2694 116.259 35.0676C116.177 34.8601 116.063 34.7159 115.916 34.6352C115.775 34.5545 115.61 34.5112 115.422 34.5055C115.093 34.5055 114.838 34.6294 114.656 34.8773C114.479 35.1253 114.391 35.4741 114.391 35.9238V38.1725H113.554Z" fill="#374151"/>
<path d="M111.027 38.2763C110.716 38.2763 110.437 38.2301 110.19 38.1379C109.949 38.0456 109.744 37.9217 109.573 37.766C109.409 37.6103 109.285 37.4345 109.203 37.2384L109.926 36.9271C110.02 37.1058 110.161 37.2528 110.349 37.3682C110.537 37.4835 110.745 37.5411 110.974 37.5411C111.227 37.5411 111.435 37.495 111.6 37.4028C111.764 37.3105 111.846 37.1808 111.846 37.0136C111.846 36.8521 111.785 36.7253 111.661 36.633C111.538 36.5408 111.359 36.4658 111.124 36.4082L110.71 36.3044C110.299 36.1948 109.979 36.0305 109.749 35.8114C109.526 35.5923 109.415 35.3444 109.415 35.0676C109.415 34.6467 109.553 34.321 109.829 34.0903C110.105 33.8597 110.513 33.7444 111.053 33.7444C111.318 33.7444 111.559 33.7819 111.776 33.8568C111.999 33.9318 112.187 34.0384 112.34 34.1768C112.499 34.3152 112.61 34.4795 112.675 34.6698L111.97 34.9811C111.899 34.8082 111.779 34.6813 111.609 34.6006C111.438 34.5141 111.239 34.4709 111.009 34.4709C110.774 34.4709 110.589 34.5228 110.454 34.6265C110.319 34.7246 110.252 34.8629 110.252 35.0417C110.252 35.1397 110.307 35.2348 110.419 35.3271C110.537 35.4136 110.707 35.4856 110.93 35.5433L111.406 35.6557C111.694 35.7249 111.932 35.8316 112.12 35.9757C112.308 36.1141 112.449 36.2727 112.543 36.4514C112.637 36.6244 112.684 36.806 112.684 36.9963C112.684 37.2557 112.61 37.4835 112.463 37.6795C112.322 37.8698 112.125 38.0168 111.873 38.1206C111.626 38.2244 111.344 38.2763 111.027 38.2763Z" fill="#374151"/>
<path d="M106.57 38.2763C106.141 38.2763 105.762 38.1811 105.433 37.9909C105.104 37.7948 104.846 37.5267 104.658 37.1865C104.47 36.8464 104.376 36.4543 104.376 36.0103C104.376 35.5664 104.47 35.1743 104.658 34.8341C104.846 34.4939 105.104 34.2287 105.433 34.0384C105.768 33.8424 106.15 33.7444 106.579 33.7444C106.984 33.7444 107.339 33.8453 107.645 34.0471C107.95 34.2431 108.188 34.5256 108.359 34.8946C108.535 35.2579 108.623 35.6874 108.623 36.1833H105.063L105.222 36.0536C105.222 36.3592 105.283 36.6244 105.407 36.8492C105.53 37.0741 105.698 37.2471 105.909 37.3682C106.121 37.4835 106.361 37.5411 106.632 37.5411C106.925 37.5411 107.169 37.4748 107.363 37.3422C107.563 37.2038 107.718 37.0309 107.83 36.8233L108.552 37.1519C108.435 37.3768 108.282 37.5757 108.094 37.7487C107.906 37.9159 107.683 38.0456 107.425 38.1379C107.172 38.2301 106.887 38.2763 106.57 38.2763ZM105.275 35.6644L105.107 35.5346H107.892L107.733 35.6644C107.733 35.4107 107.68 35.1945 107.574 35.0157C107.469 34.8312 107.328 34.6928 107.151 34.6006C106.975 34.5026 106.778 34.4536 106.561 34.4536C106.35 34.4536 106.144 34.5026 105.944 34.6006C105.75 34.6928 105.589 34.8283 105.46 35.0071C105.336 35.1858 105.275 35.4049 105.275 35.6644Z" fill="#374151"/>
<path d="M102.626 38.1725V32.1184H103.463V38.1725H102.626Z" fill="#374151"/>
<path d="M100.788 38.1725L100.753 37.4201V35.9152C100.753 35.5981 100.715 35.3328 100.638 35.1195C100.568 34.9062 100.456 34.7447 100.303 34.6352C100.157 34.5256 99.9598 34.4709 99.7131 34.4709C99.484 34.4709 99.2843 34.517 99.1139 34.6092C98.9495 34.7015 98.8114 34.8456 98.6998 35.0417L97.9597 34.7649C98.0654 34.5689 98.1976 34.3959 98.3562 34.246C98.5148 34.0903 98.7057 33.9692 98.9289 33.8828C99.1521 33.7905 99.4135 33.7444 99.7131 33.7444C100.13 33.7444 100.477 33.8251 100.753 33.9865C101.029 34.148 101.235 34.3815 101.37 34.6871C101.511 34.9927 101.578 35.3703 101.572 35.8201L101.563 38.1725H100.788ZM99.4928 38.2763C98.97 38.2763 98.5618 38.161 98.2681 37.9303C97.9802 37.6939 97.8363 37.3682 97.8363 36.953C97.8363 36.5091 97.9861 36.1718 98.2857 35.9411C98.5911 35.7047 99.0141 35.5865 99.5545 35.5865H100.779V36.2352H99.7836C99.3783 36.2352 99.0934 36.2986 98.9289 36.4255C98.7644 36.5465 98.6822 36.7166 98.6822 36.9357C98.6822 37.1375 98.7586 37.2961 98.9113 37.4114C99.0699 37.521 99.2872 37.5757 99.5633 37.5757C99.8042 37.5757 100.013 37.5267 100.189 37.4287C100.365 37.3249 100.503 37.1808 100.603 36.9963C100.703 36.8118 100.753 36.6013 100.753 36.3649H101.044C101.044 36.953 100.914 37.4201 100.656 37.766C100.403 38.1062 100.016 38.2763 99.4928 38.2763Z" fill="#374151"/>
<path d="M94.8819 38.2763C94.5529 38.2763 94.2533 38.2388 93.9831 38.1638C93.7188 38.0889 93.4868 37.988 93.287 37.8611C93.0932 37.7285 92.9317 37.5815 92.8024 37.4201C92.6732 37.2586 92.5821 37.0885 92.5293 36.9098L93.3663 36.6417C93.4545 36.8781 93.6219 37.0828 93.8686 37.2557C94.1153 37.4287 94.4178 37.5181 94.7761 37.5238C95.2108 37.5238 95.5515 37.4402 95.7982 37.273C96.0508 37.1001 96.1771 36.8723 96.1771 36.5898C96.1771 36.3303 96.0685 36.1199 95.8511 35.9584C95.6338 35.7912 95.3459 35.6644 94.9876 35.5779L94.2739 35.3963C93.9919 35.3213 93.7335 35.2146 93.4985 35.0763C93.2694 34.9379 93.0873 34.762 92.9522 34.5487C92.8171 34.3354 92.7496 34.0788 92.7496 33.779C92.7496 33.2255 92.9317 32.793 93.2959 32.4817C93.6659 32.1703 94.1975 32.0146 94.8907 32.0146C95.2901 32.0146 95.6367 32.0781 95.9304 32.2049C96.2241 32.326 96.465 32.4874 96.6529 32.6892C96.8468 32.891 96.9848 33.113 97.0671 33.3552L96.23 33.6319C96.1301 33.3725 95.9598 33.1649 95.7189 33.0092C95.4781 32.8478 95.1815 32.7671 94.829 32.7671C94.4589 32.7671 94.1652 32.8536 93.9479 33.0265C93.7364 33.1995 93.6307 33.4359 93.6307 33.7357C93.6307 33.9894 93.7129 34.1855 93.8774 34.3238C94.0477 34.4565 94.2739 34.5574 94.5559 34.6265L95.2696 34.7995C95.8452 34.9379 96.2887 35.1685 96.6001 35.4914C96.9173 35.8085 97.0759 36.1574 97.0759 36.5379C97.0759 36.8665 96.9907 37.1635 96.8203 37.4287C96.6559 37.6882 96.4092 37.8957 96.0802 38.0514C95.7571 38.2013 95.3577 38.2763 94.8819 38.2763Z" fill="#374151"/>
<path d="M86.3158 40.006C86.1866 40.006 86.0426 39.9829 85.884 39.9368C85.7313 39.8907 85.5727 39.8301 85.4082 39.7552L85.7166 39.0806C85.8459 39.1383 85.9575 39.1815 86.0515 39.2103C86.1513 39.2392 86.2306 39.2536 86.2894 39.2536C86.4362 39.2536 86.5596 39.2132 86.6594 39.1325C86.7652 39.0518 86.8503 38.9393 86.915 38.7952L87.426 37.6103L88.9944 33.8482H89.8931L87.8049 38.7087C87.6933 38.9739 87.5758 39.2046 87.4524 39.4006C87.3291 39.5966 87.1764 39.7465 86.9943 39.8503C86.818 39.9541 86.5919 40.006 86.3158 40.006ZM87.1969 38.1725L85.2673 33.8482H86.1572L87.752 37.6017L88.0075 38.1725H87.1969Z" fill="#374151"/>
<path d="M80.7273 38.1725V32.1184H81.5644V37.3682L81.5204 38.1725H80.7273ZM83.0095 38.2763C82.6394 38.2763 82.3163 38.1811 82.0402 37.9909C81.77 37.8006 81.5615 37.5354 81.4146 37.1952C81.2678 36.855 81.1943 36.4601 81.1943 36.0103C81.1943 35.5548 81.2678 35.1599 81.4146 34.8255C81.5615 34.4853 81.77 34.2201 82.0402 34.0298C82.3163 33.8395 82.6394 33.7444 83.0095 33.7444C83.403 33.7444 83.7496 33.8395 84.0492 34.0298C84.3488 34.2201 84.5808 34.4853 84.7453 34.8255C84.9156 35.1599 85.0008 35.5548 85.0008 36.0103C85.0008 36.4601 84.9156 36.855 84.7453 37.1952C84.5808 37.5354 84.3488 37.8006 84.0492 37.9909C83.7496 38.1811 83.403 38.2763 83.0095 38.2763ZM82.8068 37.5325C83.0711 37.5325 83.3032 37.4691 83.5029 37.3422C83.7026 37.2096 83.8583 37.0309 83.9699 36.806C84.0874 36.5754 84.1461 36.3101 84.1461 36.0103C84.1461 35.7105 84.0903 35.4482 83.9787 35.2233C83.8671 34.9927 83.7114 34.8139 83.5117 34.6871C83.312 34.5545 83.0799 34.4882 82.8156 34.4882C82.5748 34.4882 82.3574 34.5545 82.1636 34.6871C81.9756 34.8139 81.8287 34.9927 81.723 35.2233C81.6173 35.4539 81.5644 35.7163 81.5644 36.0103C81.5644 36.3101 81.6173 36.5754 81.723 36.806C81.8287 37.0309 81.9756 37.2096 82.1636 37.3422C82.3515 37.4691 82.566 37.5325 82.8068 37.5325Z" fill="#374151"/>
<path d="M76.0489 38.2763C75.7376 38.2763 75.4586 38.2301 75.2119 38.1379C74.971 38.0456 74.7654 37.9217 74.5951 37.766C74.4306 37.6103 74.3073 37.4345 74.225 37.2384L74.9475 36.9271C75.0415 37.1058 75.1825 37.2528 75.3705 37.3682C75.5584 37.4835 75.767 37.5411 75.9961 37.5411C76.2487 37.5411 76.4572 37.495 76.6217 37.4028C76.7861 37.3105 76.8684 37.1808 76.8684 37.0136C76.8684 36.8521 76.8067 36.7253 76.6833 36.633C76.56 36.5408 76.3808 36.4658 76.1459 36.4082L75.7317 36.3044C75.3205 36.1948 75.0004 36.0305 74.7713 35.8114C74.5481 35.5923 74.4365 35.3444 74.4365 35.0676C74.4365 34.6467 74.5745 34.321 74.8506 34.0903C75.1267 33.8597 75.535 33.7444 76.0754 33.7444C76.3397 33.7444 76.5805 33.7819 76.7979 33.8568C77.0211 33.9318 77.2091 34.0384 77.3618 34.1768C77.5204 34.3152 77.632 34.4795 77.6966 34.6698L76.9917 34.9811C76.9213 34.8082 76.8008 34.6813 76.6305 34.6006C76.4601 34.5141 76.2604 34.4709 76.0313 34.4709C75.7964 34.4709 75.6113 34.5228 75.4762 34.6265C75.3411 34.7246 75.2736 34.8629 75.2736 35.0417C75.2736 35.1397 75.3294 35.2348 75.441 35.3271C75.5584 35.4136 75.7288 35.4856 75.952 35.5433L76.4278 35.6557C76.7157 35.7249 76.9536 35.8316 77.1415 35.9757C77.3295 36.1141 77.4705 36.2727 77.5645 36.4514C77.6585 36.6244 77.7054 36.806 77.7054 36.9963C77.7054 37.2557 77.632 37.4835 77.4852 37.6795C77.3442 37.8698 77.1474 38.0168 76.8948 38.1206C76.6481 38.2244 76.3661 38.2763 76.0489 38.2763Z" fill="#374151"/>
<path d="M72.7906 38.2763C72.3501 38.2763 72.0094 38.1667 71.7686 37.9476C71.5277 37.7228 71.4073 37.4028 71.4073 36.9876V32.499H72.2444V36.8665C72.2444 37.0799 72.2972 37.2442 72.403 37.3595C72.5146 37.4691 72.6732 37.5238 72.8788 37.5238C72.9375 37.5238 73.0021 37.5123 73.0726 37.4892C73.1431 37.4662 73.2283 37.4201 73.3281 37.3509L73.6453 37.9909C73.4926 38.0889 73.3458 38.161 73.2048 38.2071C73.0697 38.2532 72.9316 38.2763 72.7906 38.2763ZM70.6583 34.5573V33.8482H73.4955V34.5573H70.6583Z" fill="#374151"/>
<path d="M66.151 38.1725V33.8482H66.9352L66.9881 34.6438V38.1725H66.151ZM69.1997 38.1725V35.9584H70.0367V38.1725H69.1997ZM69.1997 35.9584C69.1997 35.5664 69.1527 35.2694 69.0587 35.0676C68.9706 34.8601 68.8443 34.7159 68.6798 34.6352C68.5212 34.5545 68.3362 34.5112 68.1247 34.5055C67.7664 34.5055 67.4874 34.6294 67.2876 34.8773C67.0879 35.1253 66.9881 35.4741 66.9881 35.9238H66.6268C66.6268 35.4683 66.6943 35.0792 66.8295 34.7563C66.9704 34.4276 67.1672 34.1768 67.4198 34.0038C67.6783 33.8309 67.9837 33.7444 68.3362 33.7444C68.6827 33.7444 68.9823 33.8136 69.2349 33.9519C69.4934 34.0903 69.6902 34.3065 69.8253 34.6006C69.9662 34.8889 70.0367 35.2694 70.0367 35.7422V35.9584H69.1997Z" fill="#374151"/>
<path d="M63.271 38.2763C62.8422 38.2763 62.4633 38.1811 62.1344 37.9909C61.8054 37.7948 61.547 37.5267 61.359 37.1865C61.171 36.8464 61.077 36.4543 61.077 36.0103C61.077 35.5664 61.171 35.1743 61.359 34.8341C61.547 34.4939 61.8054 34.2287 62.1344 34.0384C62.4692 33.8424 62.851 33.7444 63.2798 33.7444C63.6852 33.7444 64.0405 33.8453 64.346 34.0471C64.6515 34.2431 64.8894 34.5256 65.0597 34.8946C65.2359 35.2579 65.324 35.6874 65.324 36.1833H61.7643L61.9229 36.0536C61.9229 36.3592 61.9846 36.6244 62.108 36.8492C62.2313 37.0741 62.3987 37.2471 62.6102 37.3682C62.8217 37.4835 63.0625 37.5411 63.3327 37.5411C63.6264 37.5411 63.8702 37.4748 64.064 37.3422C64.2638 37.2038 64.4194 37.0309 64.531 36.8233L65.2536 37.1519C65.1361 37.3768 64.9833 37.5757 64.7954 37.7487C64.6074 37.9159 64.3842 38.0456 64.1257 38.1379C63.8731 38.2301 63.5882 38.2763 63.271 38.2763ZM61.9758 35.6644L61.8084 35.5346H64.5927L64.4341 35.6644C64.4341 35.4107 64.3812 35.1945 64.2755 35.0157C64.1698 34.8312 64.0288 34.6928 63.8526 34.6006C63.6763 34.5026 63.4796 34.4536 63.2622 34.4536C63.0508 34.4536 62.8452 34.5026 62.6454 34.6006C62.4516 34.6928 62.29 34.8283 62.1608 35.0071C62.0375 35.1858 61.9758 35.4049 61.9758 35.6644Z" fill="#374151"/>
<path d="M57.9418 40.0146C57.6481 40.0146 57.3809 39.9858 57.14 39.9282C56.8992 39.8763 56.6965 39.8157 56.532 39.7465C56.3676 39.6774 56.2442 39.6168 56.162 39.5649L56.4792 38.899C56.5555 38.9451 56.6642 38.997 56.8052 39.0546C56.9462 39.1181 57.1106 39.17 57.2986 39.2103C57.4866 39.2564 57.6951 39.2795 57.9242 39.2795C58.1944 39.2795 58.4353 39.2247 58.6467 39.1152C58.8582 39.0114 59.0227 38.8471 59.1402 38.6222C59.2635 38.3974 59.3252 38.1091 59.3252 37.7574V33.8482H60.1623V37.7401C60.1623 38.2359 60.0653 38.651 59.8715 38.9855C59.6835 39.3256 59.4221 39.5822 59.0873 39.7552C58.7583 39.9282 58.3765 40.0146 57.9418 40.0146ZM57.8625 38.1119C57.4631 38.1119 57.1136 38.0226 56.814 37.8438C56.5203 37.6593 56.2883 37.4056 56.1179 37.0828C55.9534 36.7541 55.8712 36.3764 55.8712 35.9498C55.8712 35.5058 55.9534 35.1195 56.1179 34.7909C56.2883 34.4622 56.5203 34.2056 56.814 34.0211C57.1136 33.8366 57.4631 33.7444 57.8625 33.7444C58.2267 33.7444 58.5439 33.8366 58.8141 34.0211C59.0902 34.2056 59.3017 34.4651 59.4485 34.7995C59.6013 35.1282 59.6776 35.5145 59.6776 35.9584C59.6776 36.3851 59.6013 36.7628 59.4485 37.0914C59.3017 37.4143 59.0902 37.6651 58.8141 37.8438C58.5439 38.0226 58.2267 38.1119 57.8625 38.1119ZM58.074 37.4201C58.3207 37.4201 58.5351 37.3566 58.7172 37.2298C58.8993 37.0972 59.0432 36.9213 59.149 36.7022C59.2547 36.4774 59.3076 36.2208 59.3076 35.9325C59.3076 35.6442 59.2547 35.3905 59.149 35.1714C59.0432 34.9523 58.8964 34.7822 58.7084 34.6611C58.5263 34.5343 58.3119 34.4709 58.0652 34.4709C57.8067 34.4709 57.5776 34.5343 57.3779 34.6611C57.1841 34.7822 57.0313 34.9523 56.9197 35.1714C56.8081 35.3905 56.7523 35.6442 56.7523 35.9325C56.7523 36.2208 56.8081 36.4774 56.9197 36.7022C57.0372 36.9213 57.1929 37.0972 57.3867 37.2298C57.5864 37.3566 57.8155 37.4201 58.074 37.4201Z" fill="#374151"/>
<path d="M54.6049 38.1725L52.1642 32.1184H53.0453L55.5301 38.1725H54.6049ZM49.6354 38.1725L52.1202 32.1184H53.0013L50.5606 38.1725H49.6354ZM50.8073 36.5552V35.7941H54.3582V36.5552H50.8073Z" fill="#374151"/>
<path d="M45.754 38.1725V32.1184H46.6175V38.1725H45.754Z" fill="#374151"/>
<path d="M43.9695 38.1725L41.5288 32.1184H42.4099L44.8947 38.1725H43.9695ZM39 38.1725L41.4848 32.1184H42.3659L39.9252 38.1725H39ZM40.1719 36.5552V35.7941H43.7228V36.5552H40.1719Z" fill="#374151"/>
<defs>
<linearGradient id="paint0_linear_23886_8271" x1="28.3073" y1="25.2448" x2="15.5015" y2="0.944781" gradientUnits="userSpaceOnUse">
<stop stop-color="#7843FD"/>
<stop offset="0.360577" stop-color="#CB20A2"/>
<stop offset="0.644231" stop-color="#EE1082"/>
<stop offset="1" stop-color="#D68200"/>
</linearGradient>
</defs>
</svg>
