<svg width="400" viewBox="0 0 330 377" fill="none" xmlns="http://www.w3.org/2000/svg">
<circle cx="171.203" cy="155.002" r="144.797" stroke="#EBECF0" stroke-width="2"/>
<circle cx="172.013" cy="154.323" r="103.41" stroke="#EBECF0" stroke-width="2"/>
<path d="M182.82 9.04832C193.441 -3.39822 213.534 0.313643 218.988 15.7297L304.521 257.514C309.975 272.93 296.698 288.488 280.623 285.518L28.5066 238.945C12.4318 235.976 5.61482 216.706 16.2361 204.259L182.82 9.04832Z" fill="#FFEB98"/>
<path fill-rule="evenodd" clip-rule="evenodd" d="M249.998 34.0606C249.567 33.0394 250.354 31.9195 251.461 31.9796L259.651 32.424C260.827 32.4878 261.474 33.8208 260.796 34.7846L255.796 41.8964C255.118 42.8601 253.645 42.7023 253.187 41.6169L249.998 34.0606Z" fill="#00C7E6"/>
<path fill-rule="evenodd" clip-rule="evenodd" d="M206.068 294.64C207.106 295.03 207.376 296.372 206.571 297.134L200.612 302.769C199.756 303.579 198.344 303.131 198.111 301.976L196.393 293.453C196.16 292.299 197.288 291.338 198.391 291.753L206.068 294.64Z" fill="#8770FF"/>
<path fill-rule="evenodd" clip-rule="evenodd" d="M106.543 26.3746C105.443 26.2377 104.866 24.996 105.471 24.0673L109.948 17.1953C110.591 16.2081 112.069 16.3137 112.566 17.3822L116.228 25.2672C116.724 26.3357 115.851 27.533 114.682 27.3875L106.543 26.3746Z" fill="#FF264A"/>
<rect x="0.5" y="46.9116" width="329" height="226" rx="7.5" fill="white" stroke="#DFE1E6"/>
<path d="M208.185 91.7108H208.232L209.529 96.16H210.193L211.728 90.5233H210.994L209.873 95.1053H209.826L208.564 90.5233H207.853L206.592 95.1053H206.545L205.424 90.5233H204.689L206.224 96.16H206.889L208.185 91.7108ZM214.002 92.4686C214.67 92.4686 215.115 92.9608 215.131 93.7068H212.81C212.861 92.9608 213.33 92.4686 214.002 92.4686ZM215.111 95.0701C214.935 95.4412 214.568 95.6404 214.025 95.6404C213.31 95.6404 212.846 95.1131 212.81 94.2811V94.2498H215.838V93.992C215.838 92.6834 215.146 91.8748 214.01 91.8748C212.853 91.8748 212.111 92.7342 212.111 94.0584C212.111 95.3904 212.842 96.2342 214.01 96.2342C214.932 96.2342 215.58 95.7928 215.783 95.0701H215.111ZM218.451 96.2342C219.033 96.2342 219.533 95.9568 219.799 95.4881H219.861V96.16H220.502V90.2772H219.83V92.6131H219.771C219.533 92.1522 219.037 91.8748 218.451 91.8748C217.381 91.8748 216.682 92.7342 216.682 94.0545C216.682 95.3787 217.373 96.2342 218.451 96.2342ZM218.607 92.4803C219.369 92.4803 219.846 93.0897 219.846 94.0545C219.846 95.0272 219.373 95.6287 218.607 95.6287C217.838 95.6287 217.377 95.0389 217.377 94.0545C217.377 93.074 217.842 92.4803 218.607 92.4803ZM221.807 96.16H222.478V93.6678C222.478 92.9295 222.912 92.4803 223.584 92.4803C224.256 92.4803 224.576 92.8397 224.576 93.5975V96.16H225.248V93.4334C225.248 92.4334 224.721 91.8748 223.775 91.8748C223.131 91.8748 222.721 92.1483 222.51 92.6131H222.447V91.949H221.807V96.16ZM228.158 92.4686C228.826 92.4686 229.271 92.9608 229.287 93.7068H226.967C227.017 92.9608 227.486 92.4686 228.158 92.4686ZM229.267 95.0701C229.092 95.4412 228.724 95.6404 228.182 95.6404C227.467 95.6404 227.002 95.1131 226.967 94.2811V94.2498H229.994V93.992C229.994 92.6834 229.303 91.8748 228.166 91.8748C227.01 91.8748 226.267 92.7342 226.267 94.0584C226.267 95.3904 226.998 96.2342 228.166 96.2342C229.088 96.2342 229.736 95.7928 229.939 95.0701H229.267ZM230.951 93.1014C230.951 93.7108 231.31 94.0506 232.099 94.242L232.822 94.4178C233.271 94.5272 233.49 94.7225 233.49 95.0115C233.49 95.3983 233.084 95.6678 232.517 95.6678C231.978 95.6678 231.642 95.4412 231.529 95.0858H230.838C230.912 95.785 231.557 96.2342 232.494 96.2342C233.451 96.2342 234.182 95.7147 234.182 94.9608C234.182 94.3553 233.799 94.0115 233.006 93.8201L232.357 93.6639C231.861 93.5428 231.627 93.3631 231.627 93.074C231.627 92.699 232.017 92.4451 232.517 92.4451C233.025 92.4451 233.353 92.6678 233.443 93.0037H234.107C234.017 92.3123 233.404 91.8748 232.521 91.8748C231.627 91.8748 230.951 92.4022 230.951 93.1014ZM236.795 96.2342C237.377 96.2342 237.877 95.9568 238.142 95.4881H238.205V96.16H238.846V90.2772H238.174V92.6131H238.115C237.877 92.1522 237.381 91.8748 236.795 91.8748C235.724 91.8748 235.025 92.7342 235.025 94.0545C235.025 95.3787 235.717 96.2342 236.795 96.2342ZM236.951 92.4803C237.713 92.4803 238.189 93.0897 238.189 94.0545C238.189 95.0272 237.717 95.6287 236.951 95.6287C236.182 95.6287 235.721 95.0389 235.721 94.0545C235.721 93.074 236.185 92.4803 236.951 92.4803ZM241.447 95.6443C240.959 95.6443 240.596 95.3943 240.596 94.9647C240.596 94.5428 240.877 94.3201 241.517 94.2772L242.65 94.2029V94.5897C242.65 95.1912 242.139 95.6443 241.447 95.6443ZM241.322 96.2342C241.885 96.2342 242.346 95.9881 242.619 95.5389H242.682V96.16H243.322V93.2772C243.322 92.4022 242.748 91.8748 241.721 91.8748C240.822 91.8748 240.158 92.3201 240.068 92.9959H240.748C240.842 92.6639 241.193 92.4725 241.697 92.4725C242.326 92.4725 242.65 92.7576 242.65 93.2772V93.66L241.435 93.7342C240.455 93.7928 239.9 94.2264 239.9 94.9803C239.9 95.7498 240.506 96.2342 241.322 96.2342ZM244.767 97.6834C245.514 97.6834 245.849 97.3943 246.209 96.4178L247.853 91.949H247.139L245.986 95.4139H245.924L244.767 91.949H244.041L245.599 96.1639L245.521 96.4139C245.346 96.9217 245.135 97.1053 244.748 97.1053C244.654 97.1053 244.549 97.1014 244.467 97.0858V97.66C244.56 97.6756 244.678 97.6834 244.767 97.6834ZM248.646 97.5936L249.224 95.3709H248.435L248.06 97.5936H248.646ZM253.588 96.16V93.7186H256.084V93.0936H253.588V91.1561H256.307V90.5233H252.885V96.16H253.588ZM259.057 92.4686C259.724 92.4686 260.17 92.9608 260.185 93.7068H257.865C257.916 92.9608 258.385 92.4686 259.057 92.4686ZM260.166 95.0701C259.99 95.4412 259.623 95.6404 259.08 95.6404C258.365 95.6404 257.9 95.1131 257.865 94.2811V94.2498H260.892V93.992C260.892 92.6834 260.201 91.8748 259.064 91.8748C257.908 91.8748 257.166 92.7342 257.166 94.0584C257.166 95.3904 257.896 96.2342 259.064 96.2342C259.986 96.2342 260.635 95.7928 260.838 95.0701H260.166ZM264.041 96.2342C265.107 96.2342 265.807 95.3709 265.807 94.0545C265.807 92.7303 265.111 91.8748 264.041 91.8748C263.463 91.8748 262.951 92.16 262.721 92.6131H262.658V90.2772H261.986V96.16H262.627V95.4881H262.689C262.955 95.9568 263.455 96.2342 264.041 96.2342ZM263.885 92.4803C264.654 92.4803 265.111 93.0701 265.111 94.0545C265.111 95.0389 264.654 95.6287 263.885 95.6287C263.119 95.6287 262.642 95.0272 262.642 94.0545C262.642 93.0818 263.119 92.4803 263.885 92.4803ZM266.861 96.16H267.533V93.5506C267.533 92.9568 267.998 92.5272 268.639 92.5272C268.771 92.5272 269.014 92.5506 269.068 92.5662V91.8943C268.982 91.8826 268.842 91.8748 268.732 91.8748C268.174 91.8748 267.689 92.1639 267.564 92.574H267.502V91.949H266.861V96.16ZM273.314 91.949H272.642V94.4412C272.642 95.1795 272.236 95.6209 271.494 95.6209C270.822 95.6209 270.541 95.2693 270.541 94.5115V91.949H269.869V94.6756C269.869 95.6717 270.361 96.2342 271.307 96.2342C271.951 96.2342 272.4 95.9686 272.611 95.4998H272.674V96.16H273.314V91.949ZM275.877 95.6443C275.389 95.6443 275.025 95.3943 275.025 94.9647C275.025 94.5428 275.307 94.3201 275.947 94.2772L277.08 94.2029V94.5897C277.08 95.1912 276.568 95.6443 275.877 95.6443ZM275.752 96.2342C276.314 96.2342 276.775 95.9881 277.049 95.5389H277.111V96.16H277.752V93.2772C277.752 92.4022 277.178 91.8748 276.15 91.8748C275.252 91.8748 274.588 92.3201 274.498 92.9959H275.178C275.271 92.6639 275.623 92.4725 276.127 92.4725C276.756 92.4725 277.08 92.7576 277.08 93.2772V93.66L275.865 93.7342C274.885 93.7928 274.33 94.2264 274.33 94.9803C274.33 95.7498 274.935 96.2342 275.752 96.2342ZM278.994 96.16H279.666V93.5506C279.666 92.9568 280.131 92.5272 280.771 92.5272C280.904 92.5272 281.146 92.5506 281.201 92.5662V91.8943C281.115 91.8826 280.974 91.8748 280.865 91.8748C280.307 91.8748 279.822 92.1639 279.697 92.574H279.635V91.949H278.994V96.16ZM282.4 97.6834C283.146 97.6834 283.482 97.3943 283.842 96.4178L285.486 91.949H284.771L283.619 95.4139H283.557L282.4 91.949H281.674L283.232 96.1639L283.154 96.4139C282.978 96.9217 282.767 97.1053 282.381 97.1053C282.287 97.1053 282.182 97.1014 282.099 97.0858V97.66C282.193 97.6756 282.31 97.6834 282.4 97.6834ZM289.986 96.16H290.689V90.5233H289.99L288.49 91.6014V92.3436L289.924 91.3045H289.986V96.16ZM294.267 96.2928C295.533 96.2928 296.26 95.2225 296.26 93.3514C296.26 91.4842 295.521 90.3904 294.267 90.3904C293.006 90.3904 292.267 91.4803 292.267 93.3397C292.267 95.2147 292.998 96.2928 294.267 96.2928ZM294.267 95.6795C293.435 95.6795 292.974 94.8475 292.974 93.3397C292.974 91.8514 293.443 91.0076 294.267 91.0076C295.092 91.0076 295.553 91.8436 295.553 93.3397C295.553 94.8514 295.099 95.6795 294.267 95.6795Z" fill="#172B4D"/>
<rect x="204.338" y="114.839" width="110" height="22" rx="4" fill="white"/>
<path d="M244.896 128.976C246.33 128.976 247.182 127.854 247.182 125.956C247.182 125.241 247.045 124.64 246.783 124.175C246.404 123.452 245.752 123.061 244.928 123.061C243.701 123.061 242.834 123.886 242.834 125.042C242.834 126.128 243.615 126.917 244.689 126.917C245.349 126.917 245.885 126.608 246.15 126.073H246.162C246.162 126.073 246.178 126.073 246.182 126.073C246.189 126.073 246.217 126.073 246.217 126.073C246.217 127.362 245.728 128.132 244.904 128.132C244.42 128.132 244.045 127.866 243.916 127.44H242.912C243.08 128.366 243.865 128.976 244.896 128.976ZM244.932 126.116C244.283 126.116 243.822 125.655 243.822 125.011C243.822 124.382 244.307 123.901 244.935 123.901C245.564 123.901 246.049 124.39 246.049 125.026C246.049 125.655 245.576 126.116 244.932 126.116ZM248.951 128.241C249.322 128.241 249.576 127.976 249.576 127.624C249.576 127.268 249.322 127.007 248.951 127.007C248.584 127.007 248.326 127.268 248.326 127.624C248.326 127.976 248.584 128.241 248.951 128.241ZM248.951 125.311C249.322 125.311 249.576 125.05 249.576 124.698C249.576 124.343 249.322 124.081 248.951 124.081C248.584 124.081 248.326 124.343 248.326 124.698C248.326 125.05 248.584 125.311 248.951 125.311ZM252.889 128.979C254.236 128.979 255.037 127.886 255.037 126.022C255.037 124.151 254.224 123.061 252.889 123.061C251.549 123.061 250.736 124.151 250.736 126.015C250.736 127.886 251.537 128.979 252.889 128.979ZM252.889 128.143C252.174 128.143 251.756 127.401 251.756 126.015C251.756 124.64 252.182 123.901 252.889 123.901C253.596 123.901 254.017 124.636 254.017 126.015C254.017 127.401 253.603 128.143 252.889 128.143ZM258.209 128.979C259.557 128.979 260.357 127.886 260.357 126.022C260.357 124.151 259.545 123.061 258.209 123.061C256.869 123.061 256.057 124.151 256.057 126.015C256.057 127.886 256.857 128.979 258.209 128.979ZM258.209 128.143C257.494 128.143 257.076 127.401 257.076 126.015C257.076 124.64 257.502 123.901 258.209 123.901C258.916 123.901 259.338 124.636 259.338 126.015C259.338 127.401 258.924 128.143 258.209 128.143ZM267.334 128.839H268.416L266.412 123.202H265.279L263.279 128.839H264.299L264.783 127.397H266.857L267.334 128.839ZM265.791 124.276H265.857L266.623 126.601H265.017L265.791 124.276ZM275.205 128.839V123.202H274.025L272.33 127.308H272.26L270.564 123.202H269.385V128.839H270.322V124.874H270.377L271.935 128.62H272.654L274.213 124.874H274.267V128.839H275.205Z" fill="#172B4D"/>
<rect x="204.588" y="115.089" width="109.5" height="21.5" rx="3.75" stroke="#1F62FF" stroke-opacity="0.4" stroke-width="0.5"/>
<rect x="204.338" y="144.888" width="110" height="22" rx="4" fill="#1F62FF"/>
<path d="M244.896 159.025C246.33 159.025 247.182 157.904 247.182 156.006C247.182 155.291 247.045 154.689 246.783 154.224C246.404 153.502 245.752 153.111 244.928 153.111C243.701 153.111 242.834 153.935 242.834 155.092C242.834 156.177 243.615 156.967 244.689 156.967C245.349 156.967 245.885 156.658 246.15 156.123H246.162C246.162 156.123 246.178 156.123 246.182 156.123C246.189 156.123 246.217 156.123 246.217 156.123C246.217 157.412 245.728 158.181 244.904 158.181C244.42 158.181 244.045 157.916 243.916 157.49H242.912C243.08 158.416 243.865 159.025 244.896 159.025ZM244.932 156.166C244.283 156.166 243.822 155.705 243.822 155.06C243.822 154.431 244.307 153.951 244.935 153.951C245.564 153.951 246.049 154.439 246.049 155.076C246.049 155.705 245.576 156.166 244.932 156.166ZM248.951 158.291C249.322 158.291 249.576 158.025 249.576 157.674C249.576 157.318 249.322 157.056 248.951 157.056C248.584 157.056 248.326 157.318 248.326 157.674C248.326 158.025 248.584 158.291 248.951 158.291ZM248.951 155.361C249.322 155.361 249.576 155.099 249.576 154.748C249.576 154.392 249.322 154.131 248.951 154.131C248.584 154.131 248.326 154.392 248.326 154.748C248.326 155.099 248.584 155.361 248.951 155.361ZM252.119 156.388H252.826C253.521 156.388 253.947 156.728 253.947 157.279C253.947 157.81 253.494 158.181 252.849 158.181C252.201 158.181 251.756 157.849 251.713 157.326H250.748C250.799 158.357 251.627 159.029 252.842 159.029C254.068 159.029 254.974 158.31 254.974 157.342C254.974 156.592 254.498 156.068 253.728 155.978V155.912C254.353 155.779 254.748 155.275 254.748 154.615C254.748 153.752 253.932 153.111 252.838 153.111C251.666 153.111 250.908 153.756 250.857 154.791H251.799C251.838 154.26 252.224 153.931 252.807 153.931C253.396 153.931 253.775 154.256 253.775 154.756C253.775 155.26 253.381 155.607 252.807 155.607H252.119V156.388ZM258.107 159.029C259.455 159.029 260.256 157.935 260.256 156.072C260.256 154.201 259.443 153.111 258.107 153.111C256.767 153.111 255.955 154.201 255.955 156.064C255.955 157.935 256.756 159.029 258.107 159.029ZM258.107 158.193C257.392 158.193 256.974 157.451 256.974 156.064C256.974 154.689 257.4 153.951 258.107 153.951C258.814 153.951 259.236 154.685 259.236 156.064C259.236 157.451 258.822 158.193 258.107 158.193ZM267.232 158.888H268.314L266.31 153.252H265.178L263.178 158.888H264.197L264.682 157.447H266.756L267.232 158.888ZM265.689 154.326H265.756L266.521 156.65H264.916L265.689 154.326ZM275.103 158.888V153.252H273.924L272.228 157.357H272.158L270.463 153.252H269.283V158.888H270.221V154.924H270.275L271.834 158.67H272.553L274.111 154.924H274.166V158.888H275.103Z" fill="white"/>
<rect x="204.588" y="145.138" width="109.5" height="21.5" rx="3.75" stroke="#1F62FF" stroke-opacity="0.4" stroke-width="0.5"/>
<rect x="204.338" y="204.888" width="110" height="22" rx="4" fill="white"/>
<path d="M242.287 218.888H243.295V213.252H242.291L240.818 214.283V215.252L242.221 214.267H242.287V218.888ZM246.967 219.029C248.314 219.029 249.115 217.935 249.115 216.072C249.115 214.201 248.303 213.111 246.967 213.111C245.627 213.111 244.814 214.201 244.814 216.064C244.814 217.935 245.615 219.029 246.967 219.029ZM246.967 218.193C246.252 218.193 245.834 217.451 245.834 216.064C245.834 214.689 246.26 213.951 246.967 213.951C247.674 213.951 248.096 214.685 248.096 216.064C248.096 217.451 247.682 218.193 246.967 218.193ZM250.904 218.291C251.275 218.291 251.529 218.025 251.529 217.674C251.529 217.318 251.275 217.056 250.904 217.056C250.537 217.056 250.279 217.318 250.279 217.674C250.279 218.025 250.537 218.291 250.904 218.291ZM250.904 215.361C251.275 215.361 251.529 215.099 251.529 214.748C251.529 214.392 251.275 214.131 250.904 214.131C250.537 214.131 250.279 214.392 250.279 214.748C250.279 215.099 250.537 215.361 250.904 215.361ZM254.072 216.388H254.779C255.474 216.388 255.9 216.728 255.9 217.279C255.9 217.81 255.447 218.181 254.803 218.181C254.154 218.181 253.709 217.849 253.666 217.326H252.701C252.752 218.357 253.58 219.029 254.795 219.029C256.021 219.029 256.928 218.31 256.928 217.342C256.928 216.592 256.451 216.068 255.682 215.978V215.912C256.307 215.779 256.701 215.275 256.701 214.615C256.701 213.752 255.885 213.111 254.791 213.111C253.619 213.111 252.861 213.756 252.81 214.791H253.752C253.791 214.26 254.178 213.931 254.76 213.931C255.349 213.931 255.728 214.256 255.728 214.756C255.728 215.26 255.334 215.607 254.76 215.607H254.072V216.388ZM260.06 219.029C261.408 219.029 262.209 217.935 262.209 216.072C262.209 214.201 261.396 213.111 260.06 213.111C258.721 213.111 257.908 214.201 257.908 216.064C257.908 217.935 258.709 219.029 260.06 219.029ZM260.06 218.193C259.346 218.193 258.928 217.451 258.928 216.064C258.928 214.689 259.353 213.951 260.06 213.951C260.767 213.951 261.189 214.685 261.189 216.064C261.189 217.451 260.775 218.193 260.06 218.193ZM269.185 218.888H270.267L268.264 213.252H267.131L265.131 218.888H266.15L266.635 217.447H268.709L269.185 218.888ZM267.642 214.326H267.709L268.474 216.65H266.869L267.642 214.326ZM277.057 218.888V213.252H275.877L274.182 217.357H274.111L272.416 213.252H271.236V218.888H272.174V214.924H272.228L273.787 218.67H274.506L276.064 214.924H276.119V218.888H277.057Z" fill="#172B4D"/>
<rect x="204.588" y="205.138" width="109.5" height="21.5" rx="3.75" stroke="#1F62FF" stroke-opacity="0.4" stroke-width="0.5"/>
<rect x="204.338" y="174.938" width="110" height="22" rx="4" fill="white"/>
<path d="M242.287 188.938H243.295V183.301H242.291L240.818 184.333V185.301L242.221 184.317H242.287V188.938ZM246.967 189.079C248.314 189.079 249.115 187.985 249.115 186.122C249.115 184.251 248.303 183.161 246.967 183.161C245.627 183.161 244.814 184.251 244.814 186.114C244.814 187.985 245.615 189.079 246.967 189.079ZM246.967 188.243C246.252 188.243 245.834 187.501 245.834 186.114C245.834 184.739 246.26 184.001 246.967 184.001C247.674 184.001 248.096 184.735 248.096 186.114C248.096 187.501 247.682 188.243 246.967 188.243ZM250.904 188.34C251.275 188.34 251.529 188.075 251.529 187.723C251.529 187.368 251.275 187.106 250.904 187.106C250.537 187.106 250.279 187.368 250.279 187.723C250.279 188.075 250.537 188.34 250.904 188.34ZM250.904 185.411C251.275 185.411 251.529 185.149 251.529 184.797C251.529 184.442 251.275 184.18 250.904 184.18C250.537 184.18 250.279 184.442 250.279 184.797C250.279 185.149 250.537 185.411 250.904 185.411ZM254.842 189.079C256.189 189.079 256.99 187.985 256.99 186.122C256.99 184.251 256.178 183.161 254.842 183.161C253.502 183.161 252.689 184.251 252.689 186.114C252.689 187.985 253.49 189.079 254.842 189.079ZM254.842 188.243C254.127 188.243 253.709 187.501 253.709 186.114C253.709 184.739 254.135 184.001 254.842 184.001C255.549 184.001 255.971 184.735 255.971 186.114C255.971 187.501 255.557 188.243 254.842 188.243ZM260.162 189.079C261.51 189.079 262.31 187.985 262.31 186.122C262.31 184.251 261.498 183.161 260.162 183.161C258.822 183.161 258.01 184.251 258.01 186.114C258.01 187.985 258.81 189.079 260.162 189.079ZM260.162 188.243C259.447 188.243 259.029 187.501 259.029 186.114C259.029 184.739 259.455 184.001 260.162 184.001C260.869 184.001 261.291 184.735 261.291 186.114C261.291 187.501 260.877 188.243 260.162 188.243ZM269.287 188.938H270.369L268.365 183.301H267.232L265.232 188.938H266.252L266.736 187.497H268.81L269.287 188.938ZM267.744 184.376H267.81L268.576 186.7H266.971L267.744 184.376ZM277.158 188.938V183.301H275.978L274.283 187.407H274.213L272.517 183.301H271.338V188.938H272.275V184.973H272.33L273.889 188.719H274.607L276.166 184.973H276.221V188.938H277.158Z" fill="#172B4D"/>
<rect x="204.588" y="175.188" width="109.5" height="21.5" rx="3.75" stroke="#1F62FF" stroke-opacity="0.4" stroke-width="0.5"/>
<rect x="204.338" y="235.037" width="110" height="22" rx="4" fill="white"/>
<path d="M242.787 249.037H243.795V243.401H242.791L241.318 244.432V245.401L242.721 244.416H242.787V249.037ZM246.756 249.037H247.764V243.401H246.76L245.287 244.432V245.401L246.689 244.416H246.756V249.037ZM250.092 248.44C250.463 248.44 250.717 248.174 250.717 247.823C250.717 247.467 250.463 247.205 250.092 247.205C249.724 247.205 249.467 247.467 249.467 247.823C249.467 248.174 249.724 248.44 250.092 248.44ZM250.092 245.51C250.463 245.51 250.717 245.248 250.717 244.897C250.717 244.541 250.463 244.28 250.092 244.28C249.724 244.28 249.467 244.541 249.467 244.897C249.467 245.248 249.724 245.51 250.092 245.51ZM254.029 249.178C255.377 249.178 256.178 248.084 256.178 246.221C256.178 244.35 255.365 243.26 254.029 243.26C252.689 243.26 251.877 244.35 251.877 246.213C251.877 248.084 252.678 249.178 254.029 249.178ZM254.029 248.342C253.314 248.342 252.896 247.6 252.896 246.213C252.896 244.838 253.322 244.1 254.029 244.1C254.736 244.1 255.158 244.834 255.158 246.213C255.158 247.6 254.744 248.342 254.029 248.342ZM259.349 249.178C260.697 249.178 261.498 248.084 261.498 246.221C261.498 244.35 260.685 243.26 259.349 243.26C258.01 243.26 257.197 244.35 257.197 246.213C257.197 248.084 257.998 249.178 259.349 249.178ZM259.349 248.342C258.635 248.342 258.217 247.6 258.217 246.213C258.217 244.838 258.642 244.1 259.349 244.1C260.057 244.1 260.478 244.834 260.478 246.213C260.478 247.6 260.064 248.342 259.349 248.342ZM268.474 249.037H269.557L267.553 243.401H266.42L264.42 249.037H265.439L265.924 247.596H267.998L268.474 249.037ZM266.932 244.475H266.998L267.764 246.799H266.158L266.932 244.475ZM276.346 249.037V243.401H275.166L273.471 247.506H273.4L271.705 243.401H270.525V249.037H271.463V245.073H271.517L273.076 248.819H273.795L275.353 245.073H275.408V249.037H276.346Z" fill="#172B4D"/>
<rect x="204.588" y="235.287" width="109.5" height="21.5" rx="3.75" stroke="#1F62FF" stroke-opacity="0.4" stroke-width="0.5"/>
<path d="M16.9279 70.9768C16.9816 72.2903 18.0704 73.1155 19.7501 73.1155C21.5177 73.1155 22.6066 72.2463 22.6066 70.8254C22.6066 69.7317 21.9962 69.1213 20.5802 68.8235L19.7306 68.6428C18.9054 68.467 18.5685 68.218 18.5685 67.7834C18.5685 67.2463 19.0568 66.9045 19.7941 66.9045C20.507 66.9045 21.0245 67.2756 21.0929 67.8323H22.4796C22.4357 66.5774 21.337 65.7083 19.7843 65.7083C18.1583 65.7083 17.089 66.5823 17.089 67.9104C17.089 68.9846 17.7189 69.6536 19.0031 69.9221L19.921 70.1174C20.7853 70.303 21.1368 70.5618 21.1368 71.011C21.1368 71.5432 20.5948 71.9143 19.8282 71.9143C18.9982 71.9143 18.422 71.5481 18.3536 70.9768H16.9279ZM26.1906 68.5208C26.8546 68.5208 27.2843 68.9651 27.3136 69.678H25.0187C25.0675 68.9797 25.5314 68.5208 26.1906 68.5208ZM27.3429 71.4016C27.1915 71.7581 26.8058 71.9583 26.2443 71.9583C25.5021 71.9583 25.0333 71.4602 25.0138 70.6594V70.5862H28.7101V70.1516C28.7101 68.4426 27.7726 67.4319 26.1857 67.4319C24.5841 67.4319 23.5978 68.5159 23.5978 70.2688C23.5978 72.0168 24.5646 73.052 26.2052 73.052C27.5236 73.052 28.4513 72.4172 28.6661 71.4016H27.3429ZM29.9259 72.9348H31.3468V65.4934H29.9259V72.9348ZM35.1554 68.5208C35.8195 68.5208 36.2491 68.9651 36.2784 69.678H33.9835C34.0323 68.9797 34.4962 68.5208 35.1554 68.5208ZM36.3077 71.4016C36.1564 71.7581 35.7706 71.9583 35.2091 71.9583C34.4669 71.9583 33.9982 71.4602 33.9786 70.6594V70.5862H37.6749V70.1516C37.6749 68.4426 36.7374 67.4319 35.1505 67.4319C33.549 67.4319 32.5626 68.5159 32.5626 70.2688C32.5626 72.0168 33.5294 73.052 35.17 73.052C36.4884 73.052 37.4161 72.4172 37.631 71.4016H36.3077ZM43.6075 69.4485C43.4904 68.2229 42.6359 67.4319 41.2101 67.4319C39.5255 67.4319 38.5782 68.4426 38.5782 70.2297C38.5782 72.0364 39.5304 73.052 41.2101 73.052C42.6115 73.052 43.4904 72.2756 43.6075 71.0696H42.2794C42.172 71.6018 41.7911 71.885 41.2101 71.885C40.4484 71.885 40.0138 71.304 40.0138 70.2297C40.0138 69.1702 40.4435 68.5989 41.2101 68.5989C41.8156 68.5989 42.1818 68.9358 42.2794 69.4485H43.6075ZM45.1749 66.2698V67.6028H44.3351V68.7209H45.1749V71.4797C45.1749 72.5295 45.6925 72.9543 47.0011 72.9543C47.2745 72.9543 47.5382 72.925 47.714 72.8909V71.8069C47.5773 71.8215 47.4796 71.8264 47.2941 71.8264C46.8107 71.8264 46.5958 71.6116 46.5958 71.1428V68.7209H47.714V67.6028H46.5958V66.2698H45.1749ZM51.6202 65.884V72.9348H54.3937C56.5031 72.9348 57.6993 71.6506 57.6993 69.3606C57.6993 67.1536 56.4884 65.884 54.3937 65.884H51.6202ZM53.0948 67.1438H54.1593C55.4386 67.1438 56.1954 67.9592 56.1954 69.385C56.1954 70.8743 55.463 71.675 54.1593 71.675H53.0948V67.1438ZM60.8439 71.9485C60.3507 71.9485 60.004 71.7043 60.004 71.304C60.004 70.9182 60.3019 70.6985 60.9122 70.6545L62.0011 70.5862V70.9817C62.0011 71.5286 61.5031 71.9485 60.8439 71.9485ZM60.3751 73.0178C61.0734 73.0178 61.6593 72.7249 61.9376 72.2317H62.0255V72.9348H63.4025V69.2581C63.4025 68.1057 62.5968 67.4319 61.171 67.4319C59.8185 67.4319 58.9054 68.0569 58.8126 69.053H60.1212C60.2384 68.7307 60.5802 68.5549 61.0929 68.5549C61.6788 68.5549 62.0011 68.8088 62.0011 69.2581V69.6975L60.6974 69.7756C59.3595 69.8538 58.6124 70.4202 58.6124 71.3967C58.6124 72.3831 59.34 73.0178 60.3751 73.0178ZM65.2042 66.2698V67.6028H64.3644V68.7209H65.2042V71.4797C65.2042 72.5295 65.7218 72.9543 67.0304 72.9543C67.3038 72.9543 67.5675 72.925 67.7433 72.8909V71.8069C67.6066 71.8215 67.5089 71.8264 67.3234 71.8264C66.84 71.8264 66.6251 71.6116 66.6251 71.1428V68.7209H67.7433V67.6028H66.6251V66.2698H65.2042ZM71.2198 68.5208C71.8839 68.5208 72.3136 68.9651 72.3429 69.678H70.048C70.0968 68.9797 70.5607 68.5208 71.2198 68.5208ZM72.3722 71.4016C72.2208 71.7581 71.8351 71.9583 71.2736 71.9583C70.5314 71.9583 70.0626 71.4602 70.0431 70.6594V70.5862H73.7394V70.1516C73.7394 68.4426 72.8019 67.4319 71.215 67.4319C69.6134 67.4319 68.6271 68.5159 68.6271 70.2688C68.6271 72.0168 69.5939 73.052 71.2345 73.052C72.5529 73.052 73.4806 72.4172 73.6954 71.4016H72.3722ZM82.4943 72.9348H84.0909L82.7823 71.5579C83.1632 71.0452 83.3829 70.2981 83.3829 69.4534V69.0139H82.1866V69.3606C82.1866 69.9465 82.1036 70.3518 81.9376 70.6448L80.5851 69.2434C81.5714 68.7112 82.0206 68.1252 82.0206 67.3977C82.0206 66.4456 81.2052 65.7815 80.0529 65.7815C78.8956 65.7815 78.046 66.4749 78.046 67.427C78.046 67.9446 78.2755 68.384 78.92 69.0432C78.881 69.0627 78.6368 69.2043 78.6075 69.2141C77.6993 69.7122 77.2941 70.2883 77.2941 71.094C77.2941 72.2952 78.2609 73.0715 79.7599 73.0715C80.6241 73.0715 81.4298 72.8079 81.9523 72.3635L82.4943 72.9348ZM79.3839 69.9172C79.4376 69.8879 79.5353 69.8391 79.589 69.8196L81.2052 71.5237C80.9269 71.8167 80.4191 72.0022 79.9064 72.0022C79.1447 72.0022 78.6271 71.5872 78.6271 70.9719C78.6271 70.5422 78.8712 70.1956 79.3839 69.9172ZM79.9259 68.5549C79.4425 68.0959 79.2716 67.8274 79.2716 67.5051C79.2716 67.0657 79.5988 66.7581 80.0577 66.7581C80.5167 66.7581 80.8341 67.0608 80.8341 67.5051C80.8341 67.9202 80.5704 68.2327 79.9259 68.5549ZM90.839 72.9348V67.1487H92.9532V65.8889H87.2501V67.1487H89.3644V72.9348H90.839ZM94.1251 72.9348H95.546V67.5491H94.1251V72.9348ZM94.838 66.7971C95.3458 66.7971 95.6779 66.4993 95.6779 66.0793C95.6779 65.6545 95.3458 65.3616 94.838 65.3616C94.3253 65.3616 93.9982 65.6545 93.9982 66.0793C93.9982 66.4993 94.3253 66.7971 94.838 66.7971ZM96.9865 72.9348H98.4073V69.6926C98.4073 69.092 98.8029 68.6575 99.3595 68.6575C99.9161 68.6575 100.248 68.9846 100.248 69.5559V72.9348H101.615V69.6389C101.615 69.0676 101.986 68.6575 102.563 68.6575C103.163 68.6575 103.461 68.9749 103.461 69.6145V72.9348H104.882V69.2385C104.882 68.1301 104.213 67.4319 103.139 67.4319C102.387 67.4319 101.767 67.8274 101.518 68.428H101.43C101.215 67.803 100.697 67.4319 99.9406 67.4319C99.2325 67.4319 98.671 67.8127 98.4513 68.428H98.3634V67.5491H96.9865V72.9348ZM108.593 68.5208C109.257 68.5208 109.687 68.9651 109.716 69.678H107.421C107.47 68.9797 107.934 68.5208 108.593 68.5208ZM109.745 71.4016C109.594 71.7581 109.208 71.9583 108.647 71.9583C107.904 71.9583 107.436 71.4602 107.416 70.6594V70.5862H111.112V70.1516C111.112 68.4426 110.175 67.4319 108.588 67.4319C106.986 67.4319 106 68.5159 106 70.2688C106 72.0168 106.967 73.052 108.608 73.052C109.926 73.052 110.854 72.4172 111.068 71.4016H109.745Z" fill="#172B4D"/>
<path fill-rule="evenodd" clip-rule="evenodd" d="M69.3708 106.412L67.1854 108.597L65 106.412H69.3708Z" fill="#172B4D"/>
<path d="M19.2775 97.16V92.1561H21.0939V91.5233H16.7579V92.1561H18.5743V97.16H19.2775ZM22.1095 97.16H22.7814V92.949H22.1095V97.16ZM22.4454 92.0936C22.7032 92.0936 22.9142 91.8826 22.9142 91.6248C22.9142 91.367 22.7032 91.1561 22.4454 91.1561C22.1876 91.1561 21.9767 91.367 21.9767 91.6248C21.9767 91.8826 22.1876 92.0936 22.4454 92.0936ZM24.0626 97.16H24.7345V94.5506C24.7345 93.9568 25.1603 93.4803 25.7111 93.4803C26.2423 93.4803 26.59 93.8006 26.59 94.3006V97.16H27.2618V94.4529C27.2618 93.9178 27.6525 93.4803 28.2384 93.4803C28.8322 93.4803 29.1251 93.785 29.1251 94.4061V97.16H29.797V94.2498C29.797 93.367 29.3165 92.8748 28.4572 92.8748C27.8751 92.8748 27.3947 93.1678 27.1681 93.6131H27.1056C26.9103 93.1756 26.5118 92.8748 25.9415 92.8748C25.379 92.8748 24.9572 93.1443 24.7657 93.6131H24.7032V92.949H24.0626V97.16ZM32.7032 93.4686C33.3712 93.4686 33.8165 93.9608 33.8322 94.7068H31.5118C31.5626 93.9608 32.0314 93.4686 32.7032 93.4686ZM33.8126 96.0701C33.6368 96.4412 33.2697 96.6404 32.7267 96.6404C32.0118 96.6404 31.547 96.1131 31.5118 95.2811V95.2498H34.5392V94.992C34.5392 93.6834 33.8478 92.8748 32.7111 92.8748C31.5548 92.8748 30.8126 93.7342 30.8126 95.0584C30.8126 96.3904 31.5431 97.2342 32.7111 97.2342C33.6329 97.2342 34.2814 96.7928 34.4845 96.0701H33.8126ZM35.4962 97.16H38.7384V96.5975H36.3087V96.535L38.7267 93.4529V92.949H35.5001V93.5115H37.9259V93.574L35.4962 96.6678V97.16ZM41.5197 97.2342C42.7189 97.2342 43.4611 96.4061 43.4611 95.0545C43.4611 93.699 42.7189 92.8748 41.5197 92.8748C40.3204 92.8748 39.5782 93.699 39.5782 95.0545C39.5782 96.4061 40.3204 97.2342 41.5197 97.2342ZM41.5197 96.6287C40.7228 96.6287 40.2736 96.0506 40.2736 95.0545C40.2736 94.0545 40.7228 93.4803 41.5197 93.4803C42.3165 93.4803 42.7657 94.0545 42.7657 95.0545C42.7657 96.0506 42.3165 96.6287 41.5197 96.6287ZM44.5157 97.16H45.1876V94.6678C45.1876 93.9295 45.6212 93.4803 46.2931 93.4803C46.965 93.4803 47.2853 93.8397 47.2853 94.5975V97.16H47.9572V94.4334C47.9572 93.4334 47.4298 92.8748 46.4845 92.8748C45.84 92.8748 45.4298 93.1483 45.2189 93.6131H45.1564V92.949H44.5157V97.16ZM50.8673 93.4686C51.5353 93.4686 51.9806 93.9608 51.9962 94.7068H49.6759C49.7267 93.9608 50.1954 93.4686 50.8673 93.4686ZM51.9767 96.0701C51.8009 96.4412 51.4337 96.6404 50.8907 96.6404C50.1759 96.6404 49.7111 96.1131 49.6759 95.2811V95.2498H52.7032V94.992C52.7032 93.6834 52.0118 92.8748 50.8751 92.8748C49.7189 92.8748 48.9767 93.7342 48.9767 95.0584C48.9767 96.3904 49.7072 97.2342 50.8751 97.2342C51.797 97.2342 52.4454 96.7928 52.6486 96.0701H51.9767Z" fill="#172B4D"/>
<path d="M20.7736 109.18H21.5118L19.4337 103.543H18.7384L16.6603 109.18H17.3986L17.965 107.567H20.2072L20.7736 109.18ZM19.0548 104.453H19.1173L20.0001 106.969H18.172L19.0548 104.453ZM22.2384 106.121C22.2384 106.731 22.5978 107.07 23.3868 107.262L24.1095 107.438C24.5587 107.547 24.7775 107.742 24.7775 108.031C24.7775 108.418 24.3712 108.688 23.8048 108.688C23.2657 108.688 22.9298 108.461 22.8165 108.106H22.1251C22.1993 108.805 22.8439 109.254 23.7814 109.254C24.7384 109.254 25.4689 108.734 25.4689 107.981C25.4689 107.375 25.0861 107.031 24.2931 106.84L23.6447 106.684C23.1486 106.563 22.9142 106.383 22.9142 106.094C22.9142 105.719 23.3048 105.465 23.8048 105.465C24.3126 105.465 24.6407 105.688 24.7306 106.024H25.3947C25.3048 105.332 24.6915 104.895 23.8087 104.895C22.9142 104.895 22.2384 105.422 22.2384 106.121ZM26.5392 109.18H27.2111V104.969H26.5392V109.18ZM26.8751 104.113C27.1329 104.113 27.3439 103.902 27.3439 103.645C27.3439 103.387 27.1329 103.176 26.8751 103.176C26.6173 103.176 26.4064 103.387 26.4064 103.645C26.4064 103.902 26.6173 104.113 26.8751 104.113ZM29.7892 108.664C29.3009 108.664 28.9376 108.414 28.9376 107.984C28.9376 107.563 29.2189 107.34 29.8595 107.297L30.9923 107.223V107.609C30.9923 108.211 30.4806 108.664 29.7892 108.664ZM29.6642 109.254C30.2267 109.254 30.6876 109.008 30.9611 108.559H31.0236V109.18H31.6642V106.297C31.6642 105.422 31.09 104.895 30.0626 104.895C29.1642 104.895 28.5001 105.34 28.4103 106.016H29.09C29.1837 105.684 29.5353 105.492 30.0392 105.492C30.6681 105.492 30.9923 105.777 30.9923 106.297V106.68L29.7775 106.754C28.797 106.813 28.2423 107.246 28.2423 108C28.2423 108.77 28.8478 109.254 29.6642 109.254ZM33.0939 110.449L34.8204 103.543H34.2267L32.5079 110.449H33.0939ZM36.4767 109.18V107.211L37.1525 106.465L39.1876 109.18H40.0978L37.6368 105.977L39.8907 103.543H39.0079L36.5392 106.281H36.4767V103.543H35.7736V109.18H36.4767ZM42.379 109.254C43.5782 109.254 44.3204 108.426 44.3204 107.074C44.3204 105.719 43.5782 104.895 42.379 104.895C41.1798 104.895 40.4376 105.719 40.4376 107.074C40.4376 108.426 41.1798 109.254 42.379 109.254ZM42.379 108.649C41.5822 108.649 41.1329 108.07 41.1329 107.074C41.1329 106.074 41.5822 105.5 42.379 105.5C43.1759 105.5 43.6251 106.074 43.6251 107.074C43.6251 108.07 43.1759 108.649 42.379 108.649ZM45.4142 109.18H46.0861V103.297H45.4142V109.18ZM48.1642 106.809H48.1017V103.297H47.4298V109.18H48.1017V107.582L48.504 107.207L50.0822 109.18H50.9376L49.004 106.774L50.8165 104.969H49.9923L48.1642 106.809ZM52.9142 108.664C52.4259 108.664 52.0626 108.414 52.0626 107.984C52.0626 107.563 52.3439 107.34 52.9845 107.297L54.1173 107.223V107.609C54.1173 108.211 53.6056 108.664 52.9142 108.664ZM52.7892 109.254C53.3517 109.254 53.8126 109.008 54.0861 108.559H54.1486V109.18H54.7892V106.297C54.7892 105.422 54.215 104.895 53.1876 104.895C52.2892 104.895 51.6251 105.34 51.5353 106.016H52.215C52.3087 105.684 52.6603 105.492 53.1642 105.492C53.7931 105.492 54.1173 105.777 54.1173 106.297V106.68L52.9025 106.754C51.922 106.813 51.3673 107.246 51.3673 108C51.3673 108.77 51.9728 109.254 52.7892 109.254ZM56.3126 103.879V104.969H55.6329V105.531H56.3126V108.086C56.3126 108.891 56.6603 109.211 57.5275 109.211C57.6603 109.211 57.7892 109.195 57.922 109.172V108.606C57.797 108.617 57.7306 108.621 57.6095 108.621C57.172 108.621 56.9845 108.41 56.9845 107.914V105.531H57.922V104.969H56.9845V103.879H56.3126ZM60.2345 108.664C59.7462 108.664 59.3829 108.414 59.3829 107.984C59.3829 107.563 59.6642 107.34 60.3048 107.297L61.4376 107.223V107.609C61.4376 108.211 60.9259 108.664 60.2345 108.664ZM60.1095 109.254C60.672 109.254 61.1329 109.008 61.4064 108.559H61.4689V109.18H62.1095V106.297C62.1095 105.422 61.5353 104.895 60.5079 104.895C59.6095 104.895 58.9454 105.34 58.8556 106.016H59.5353C59.629 105.684 59.9806 105.492 60.4845 105.492C61.1134 105.492 61.4376 105.777 61.4376 106.297V106.68L60.2228 106.754C59.2423 106.813 58.6876 107.246 58.6876 108C58.6876 108.77 59.2931 109.254 60.1095 109.254Z" fill="#1F62FF"/>
<rect opacity="0.4" x="15.25" y="189.662" width="17.5" height="17.5" rx="3.75" fill="white" stroke="#1F62FF" stroke-width="0.5"/>
<rect opacity="0.4" x="39.8361" y="189.662" width="17.5" height="17.5" rx="3.75" fill="white" stroke="#1F62FF" stroke-width="0.5"/>
<rect x="64.1722" y="189.412" width="18" height="18" rx="4" fill="#1F62FF"/>
<rect opacity="0.4" x="89.0083" y="189.662" width="17.5" height="17.5" rx="3.75" fill="white" stroke="#1F62FF" stroke-width="0.5"/>
<rect opacity="0.4" x="113.048" y="189.662" width="17.5" height="17.5" rx="3.75" fill="white" stroke="#1F62FF" stroke-width="0.5"/>
<rect opacity="0.4" x="137.088" y="189.662" width="17.5" height="17.5" rx="3.75" fill="white" stroke="#1F62FF" stroke-width="0.5"/>
<rect opacity="0.4" x="161.127" y="189.662" width="17.5" height="17.5" rx="3.75" fill="white" stroke="#1F62FF" stroke-width="0.5"/>
<rect opacity="0.4" x="15.25" y="213.701" width="17.5" height="17.5" rx="3.75" fill="white" stroke="#1F62FF" stroke-width="0.5"/>
<rect opacity="0.4" x="39.8361" y="213.701" width="17.5" height="17.5" rx="3.75" fill="white" stroke="#1F62FF" stroke-width="0.5"/>
<rect opacity="0.4" x="89.0083" y="213.701" width="17.5" height="17.5" rx="3.75" fill="white" stroke="#1F62FF" stroke-width="0.5"/>
<rect opacity="0.4" x="113.048" y="213.701" width="17.5" height="17.5" rx="3.75" fill="white" stroke="#1F62FF" stroke-width="0.5"/>
<rect opacity="0.4" x="137.088" y="213.701" width="17.5" height="17.5" rx="3.75" fill="white" stroke="#1F62FF" stroke-width="0.5"/>
<rect opacity="0.4" x="161.127" y="213.662" width="17.5" height="17.5" rx="3.75" fill="white" stroke="#1F62FF" stroke-width="0.5"/>
<rect opacity="0.4" x="15.25" y="237.741" width="17.5" height="17.5" rx="3.75" fill="white" stroke="#1F62FF" stroke-width="0.5"/>
<rect opacity="0.4" x="64.4222" y="237.741" width="17.5" height="17.5" rx="3.75" fill="white" stroke="#1F62FF" stroke-width="0.5"/>
<rect opacity="0.4" x="89.0083" y="237.741" width="17.5" height="17.5" rx="3.75" fill="white" stroke="#1F62FF" stroke-width="0.5"/>
<rect opacity="0.4" x="113.048" y="237.741" width="17.5" height="17.5" rx="3.75" fill="white" stroke="#1F62FF" stroke-width="0.5"/>
<rect opacity="0.4" x="137.088" y="237.741" width="17.5" height="17.5" rx="3.75" fill="white" stroke="#1F62FF" stroke-width="0.5"/>
<rect opacity="0.4" x="161.127" y="237.662" width="17.5" height="17.5" rx="3.75" fill="white" stroke="#1F62FF" stroke-width="0.5"/>
<path opacity="0.6" d="M21.8799 153.62V148.688H21.1656L19.4771 152.769H19.4224L17.7339 148.688H17.0196V153.62H17.5938V149.854H17.6348L19.19 153.586H19.7095L21.2647 149.854H21.3057V153.62H21.8799ZM24.5767 153.685C25.626 153.685 26.2755 152.961 26.2755 151.778C26.2755 150.592 25.626 149.871 24.5767 149.871C23.5274 149.871 22.878 150.592 22.878 151.778C22.878 152.961 23.5274 153.685 24.5767 153.685ZM24.5767 153.155C23.8795 153.155 23.4864 152.65 23.4864 151.778C23.4864 150.903 23.8795 150.401 24.5767 150.401C25.274 150.401 25.6671 150.903 25.6671 151.778C25.6671 152.65 25.274 153.155 24.5767 153.155ZM27.1983 153.62H27.7862V151.44C27.7862 150.794 28.1656 150.401 28.7535 150.401C29.3414 150.401 29.6216 150.715 29.6216 151.378V153.62H30.2095V151.234C30.2095 150.359 29.7481 149.871 28.921 149.871C28.357 149.871 27.9981 150.11 27.8135 150.517H27.7589V149.936H27.1983V153.62Z" fill="#172B4D"/>
<path opacity="0.6" d="M45.1417 153.62V149.242H46.7311V148.688H42.9371V149.242H44.5265V153.62H45.1417ZM50.0739 149.936H49.486V152.116C49.486 152.762 49.1305 153.149 48.4811 153.149C47.8932 153.149 47.6471 152.841 47.6471 152.178V149.936H47.0592V152.321C47.0592 153.193 47.4899 153.685 48.317 153.685C48.881 153.685 49.274 153.453 49.4586 153.043H49.5133V153.62H50.0739V149.936ZM52.651 150.39C53.2355 150.39 53.6251 150.821 53.6388 151.474H51.6085C51.653 150.821 52.0631 150.39 52.651 150.39ZM53.6217 152.667C53.4679 152.991 53.1466 153.166 52.6715 153.166C52.046 153.166 51.6393 152.704 51.6085 151.976V151.949H54.2574V151.723C54.2574 150.578 53.6525 149.871 52.6578 149.871C51.6461 149.871 50.9967 150.623 50.9967 151.781C50.9967 152.947 51.6359 153.685 52.6578 153.685C53.4645 153.685 54.0319 153.299 54.2096 152.667H53.6217Z" fill="#172B4D"/>
<path opacity="0.6" d="M68.9295 149.727H68.9705L70.1053 153.62H70.6863L72.0296 148.688H71.387L70.4061 152.697H70.3651L69.261 148.688H68.639L67.535 152.697H67.494L66.513 148.688H65.8704L67.2137 153.62H67.7947L68.9295 149.727ZM74.0189 150.39C74.6033 150.39 74.993 150.821 75.0067 151.474H72.9764C73.0208 150.821 73.431 150.39 74.0189 150.39ZM74.9896 152.667C74.8358 152.991 74.5145 153.166 74.0394 153.166C73.4139 153.166 73.0071 152.704 72.9764 151.976V151.949H75.6253V151.723C75.6253 150.578 75.0203 149.871 74.0257 149.871C73.014 149.871 72.3646 150.623 72.3646 151.781C72.3646 152.947 73.0037 153.685 74.0257 153.685C74.8323 153.685 75.3997 153.299 75.5775 152.667H74.9896ZM77.9119 153.685C78.4212 153.685 78.8587 153.443 79.0911 153.032H79.1458V153.62H79.7064V148.473H79.1185V150.517H79.0672C78.8587 150.113 78.4246 149.871 77.9119 149.871C76.9754 149.871 76.3636 150.623 76.3636 151.778C76.3636 152.937 76.9686 153.685 77.9119 153.685ZM78.0486 150.401C78.7151 150.401 79.1321 150.934 79.1321 151.778C79.1321 152.629 78.7186 153.155 78.0486 153.155C77.3753 153.155 76.972 152.639 76.972 151.778C76.972 150.92 77.3787 150.401 78.0486 150.401Z" fill="#172B4D"/>
<path opacity="0.6" d="M93.7676 153.62V149.242H95.3569V148.688H91.563V149.242H93.1523V153.62H93.7676ZM96.2661 153.62H96.854V151.44C96.854 150.818 97.2163 150.401 97.876 150.401C98.4331 150.401 98.7271 150.725 98.7271 151.378V153.62H99.3149V151.234C99.3149 150.37 98.8228 149.871 98.0435 149.871C97.4795 149.871 97.0933 150.11 96.9087 150.517H96.854V148.473H96.2661V153.62ZM103.369 149.936H102.781V152.116C102.781 152.762 102.425 153.149 101.776 153.149C101.188 153.149 100.942 152.841 100.942 152.178V149.936H100.354V152.321C100.354 153.193 100.785 153.685 101.612 153.685C102.176 153.685 102.569 153.453 102.753 153.043H102.808V153.62H103.369V149.936Z" fill="#172B4D"/>
<path opacity="0.6" d="M118.711 153.62V151.484H120.895V150.937H118.711V149.242H121.09V148.688H118.096V153.62H118.711ZM122.026 153.62H122.614V151.337C122.614 150.818 123.021 150.442 123.582 150.442C123.698 150.442 123.91 150.462 123.958 150.476V149.888C123.882 149.878 123.759 149.871 123.664 149.871C123.175 149.871 122.751 150.124 122.642 150.483H122.587V149.936H122.026V153.62ZM124.774 153.62H125.362V149.936H124.774V153.62ZM125.068 149.187C125.294 149.187 125.479 149.003 125.479 148.777C125.479 148.551 125.294 148.367 125.068 148.367C124.843 148.367 124.658 148.551 124.658 148.777C124.658 149.003 124.843 149.187 125.068 149.187Z" fill="#172B4D"/>
<path opacity="0.6" d="M140.807 152.332C140.872 153.183 141.593 153.736 142.639 153.736C143.767 153.736 144.481 153.159 144.481 152.253C144.481 151.528 144.071 151.132 143.049 150.876L142.533 150.739C141.853 150.565 141.583 150.342 141.583 149.956C141.583 149.457 142.017 149.129 142.673 149.129C143.288 149.129 143.705 149.43 143.791 149.936H144.409C144.358 149.139 143.647 148.572 142.694 148.572C141.651 148.572 140.951 149.139 140.951 149.977C140.951 150.677 141.337 151.081 142.229 151.306L142.861 151.47C143.541 151.641 143.849 151.908 143.849 152.328C143.849 152.817 143.36 153.176 142.697 153.176C141.996 153.176 141.504 152.848 141.429 152.332H140.807ZM146.566 153.169C146.139 153.169 145.821 152.95 145.821 152.574C145.821 152.205 146.067 152.01 146.628 151.973L147.619 151.908V152.246C147.619 152.773 147.171 153.169 146.566 153.169ZM146.457 153.685C146.949 153.685 147.352 153.47 147.592 153.077H147.646V153.62H148.207V151.098C148.207 150.332 147.704 149.871 146.805 149.871C146.019 149.871 145.438 150.26 145.36 150.852H145.954C146.036 150.561 146.344 150.394 146.785 150.394C147.335 150.394 147.619 150.643 147.619 151.098V151.433L146.556 151.498C145.698 151.549 145.213 151.928 145.213 152.588C145.213 153.261 145.742 153.685 146.457 153.685ZM149.54 148.982V149.936H148.945V150.428H149.54V152.663C149.54 153.367 149.844 153.648 150.603 153.648C150.719 153.648 150.832 153.634 150.948 153.613V153.118C150.839 153.128 150.781 153.131 150.675 153.131C150.292 153.131 150.128 152.947 150.128 152.513V150.428H150.948V149.936H150.128V148.982H149.54Z" fill="#172B4D"/>
<path opacity="0.6" d="M163.754 152.332C163.819 153.183 164.54 153.736 165.586 153.736C166.714 153.736 167.428 153.159 167.428 152.253C167.428 151.528 167.018 151.132 165.996 150.876L165.48 150.739C164.8 150.565 164.53 150.342 164.53 149.956C164.53 149.457 164.964 149.129 165.62 149.129C166.235 149.129 166.652 149.43 166.738 149.936H167.356C167.305 149.139 166.594 148.572 165.641 148.572C164.598 148.572 163.897 149.139 163.897 149.977C163.897 150.677 164.284 151.081 165.176 151.306L165.808 151.47C166.488 151.641 166.796 151.908 166.796 152.328C166.796 152.817 166.307 153.176 165.644 153.176C164.943 153.176 164.451 152.848 164.376 152.332H163.754ZM171.359 149.936H170.771V152.116C170.771 152.762 170.416 153.149 169.766 153.149C169.178 153.149 168.932 152.841 168.932 152.178V149.936H168.344V152.321C168.344 153.193 168.775 153.685 169.602 153.685C170.166 153.685 170.559 153.453 170.744 153.043H170.798V153.62H171.359V149.936ZM172.466 153.62H173.054V151.44C173.054 150.794 173.434 150.401 174.022 150.401C174.609 150.401 174.89 150.715 174.89 151.378V153.62H175.478V151.234C175.478 150.359 175.016 149.871 174.189 149.871C173.625 149.871 173.266 150.11 173.082 150.517H173.027V149.936H172.466V153.62Z" fill="#172B4D"/>
<path opacity="0.6" d="M24.1301 178.412H24.7453V173.479H24.1335L22.821 174.423V175.072L24.0754 174.163H24.1301V178.412Z" fill="#172B4D"/>
<path opacity="0.6" d="M46.96 174.867V174.871H47.5547V174.867C47.5547 174.286 47.9444 173.9 48.522 173.9C49.0655 173.9 49.4859 174.279 49.4859 174.771C49.4859 175.168 49.3321 175.435 48.6963 176.125L46.9908 177.988V178.412H50.1831V177.858H47.8726V177.803L49.0586 176.528C49.8687 175.66 50.1011 175.26 50.1011 174.748C50.1011 173.965 49.4243 173.363 48.5391 173.363C47.6231 173.363 46.96 173.992 46.96 174.867Z" fill="#172B4D"/>
<path opacity="0.6" d="M72.5851 176.139H73.2106C73.9113 176.139 74.3453 176.494 74.3453 177.065C74.3453 177.605 73.8839 177.991 73.2345 177.991C72.5988 177.991 72.1544 177.653 72.0997 177.126H71.505C71.5494 177.971 72.2399 178.528 73.2413 178.528C74.2155 178.528 74.9777 177.896 74.9777 177.082C74.9777 176.409 74.5709 175.944 73.901 175.858V175.804C74.441 175.674 74.7657 175.243 74.7657 174.655C74.7657 173.938 74.0787 173.363 73.2174 173.363C72.2775 173.363 71.6656 173.89 71.6041 174.744H72.2023C72.2535 174.214 72.6261 173.9 73.1935 173.9C73.7609 173.9 74.1403 174.235 74.1403 174.737C74.1403 175.25 73.7438 175.612 73.1832 175.612H72.5851V176.139Z" fill="#172B4D"/>
<path opacity="0.6" d="M98.4153 178.412H99.0169V177.39H99.7176V176.839H99.0169V173.479H98.1248C97.2361 174.809 96.4534 176.046 96.0125 176.829V177.39H98.4153V178.412ZM96.6414 176.802C97.2293 175.804 97.8719 174.785 98.3777 174.05H98.4188V176.843H96.6414V176.802Z" fill="#172B4D"/>
<path opacity="0.6" d="M121.83 178.528C122.852 178.528 123.552 177.844 123.552 176.843C123.552 175.872 122.896 175.192 121.959 175.192C121.505 175.192 121.156 175.332 120.917 175.612H120.862L121.002 174.03H123.272V173.479H120.52L120.25 176.275H120.828C121.03 175.923 121.399 175.722 121.847 175.722C122.493 175.722 122.937 176.183 122.937 176.86C122.937 177.537 122.496 177.988 121.836 177.988C121.255 177.988 120.831 177.632 120.777 177.099H120.172C120.227 177.95 120.896 178.528 121.83 178.528Z" fill="#172B4D"/>
<path opacity="0.6" d="M145.986 178.524C146.997 178.524 147.715 177.817 147.715 176.826C147.715 175.869 147.035 175.175 146.095 175.175C145.507 175.175 145.025 175.455 144.782 175.934H144.728C144.762 174.621 145.216 173.91 146.02 173.91C146.505 173.91 146.878 174.19 147.011 174.652H147.643C147.486 173.859 146.864 173.363 146.027 173.363C144.82 173.363 144.13 174.334 144.13 176.029C144.13 176.573 144.208 177.027 144.369 177.403C144.676 178.128 145.244 178.524 145.986 178.524ZM145.979 177.984C145.346 177.984 144.864 177.485 144.864 176.826C144.864 176.173 145.333 175.708 145.986 175.708C146.638 175.708 147.093 176.173 147.093 176.846C147.093 177.492 146.611 177.984 145.979 177.984Z" fill="#172B4D"/>
<path opacity="0.6" d="M168.487 178.412H169.133L171.328 174.05V173.479H168.063V174.03H170.702V174.078L168.487 178.412Z" fill="#172B4D"/>
<path d="M24.0896 200.528C25.1355 200.528 25.8669 199.937 25.8669 199.092C25.8669 198.45 25.4602 197.951 24.8416 197.834V197.78C25.3508 197.64 25.6653 197.219 25.6653 196.679C25.6653 195.91 25.0125 195.363 24.0896 195.363C23.1667 195.363 22.5139 195.91 22.5139 196.679C22.5139 197.216 22.8352 197.643 23.3376 197.78V197.834C22.719 197.951 22.3123 198.45 22.3123 199.092C22.3123 199.937 23.0437 200.528 24.0896 200.528ZM24.0896 200.001C23.406 200.001 22.9343 199.612 22.9343 199.048C22.9343 198.484 23.406 198.094 24.0896 198.094C24.7732 198.094 25.2449 198.484 25.2449 199.048C25.2449 199.612 24.7732 200.001 24.0896 200.001ZM24.0896 197.575C23.5085 197.575 23.1189 197.24 23.1189 196.737C23.1189 196.228 23.5051 195.89 24.0896 195.89C24.6741 195.89 25.0603 196.228 25.0603 196.737C25.0603 197.24 24.6707 197.575 24.0896 197.575Z" fill="#172B4D"/>
<path d="M48.5664 200.524C49.773 200.524 50.4634 199.554 50.4634 197.858C50.4634 197.315 50.3848 196.86 50.2242 196.484C49.9165 195.756 49.3457 195.363 48.6075 195.363C47.5957 195.363 46.878 196.071 46.878 197.062C46.878 198.019 47.5581 198.713 48.4981 198.713C49.086 198.713 49.5679 198.433 49.8106 197.954H49.8242H49.8379H49.8653C49.8311 199.267 49.3765 199.978 48.5733 199.978C48.0879 199.978 47.7154 199.697 47.5821 199.236H46.9497C47.107 200.029 47.729 200.524 48.5664 200.524ZM48.6075 198.18C47.9546 198.18 47.5 197.715 47.5 197.042C47.5 196.396 47.982 195.903 48.6143 195.903C49.2466 195.903 49.7285 196.402 49.7285 197.062C49.7285 197.715 49.2603 198.18 48.6075 198.18Z" fill="#172B4D"/>
<path d="M71.1169 200.412H71.7321V195.479H71.1203L69.8078 196.423V197.072L71.0622 196.163H71.1169V200.412ZM74.863 200.528C75.9704 200.528 76.6062 199.591 76.6062 197.954C76.6062 196.32 75.9602 195.363 74.863 195.363C73.759 195.363 73.113 196.317 73.113 197.944C73.113 199.584 73.7522 200.528 74.863 200.528ZM74.863 199.991C74.135 199.991 73.7317 199.263 73.7317 197.944C73.7317 196.642 74.1418 195.903 74.863 195.903C75.5842 195.903 75.9875 196.635 75.9875 197.944C75.9875 199.267 75.591 199.991 74.863 199.991Z" fill="white"/>
<path d="M96.2494 200.412H96.8646V195.479H96.2528L94.9403 196.423V197.072L96.1947 196.163H96.2494V200.412ZM99.5169 200.412H100.132V195.479H99.5204L98.2079 196.423V197.072L99.4622 196.163H99.5169V200.412Z" fill="#172B4D"/>
<path d="M119.743 200.412H120.358V195.479H119.746L118.434 196.423V197.072L119.688 196.163H119.743V200.412ZM121.8 196.867V196.871H122.395V196.867C122.395 196.286 122.785 195.9 123.362 195.9C123.906 195.9 124.326 196.279 124.326 196.771C124.326 197.168 124.172 197.435 123.537 198.125L121.831 199.988V200.412H125.024V199.858H122.713V199.803L123.899 198.528C124.709 197.66 124.941 197.26 124.941 196.748C124.941 195.965 124.265 195.363 123.379 195.363C122.463 195.363 121.8 195.992 121.8 196.867Z" fill="#172B4D"/>
<path d="M143.782 200.412H144.398V195.479H143.786L142.473 196.423V197.072L143.728 196.163H143.782V200.412ZM146.879 198.139H147.505C148.205 198.139 148.639 198.494 148.639 199.065C148.639 199.605 148.178 199.991 147.529 199.991C146.893 199.991 146.448 199.653 146.394 199.126H145.799C145.844 199.971 146.534 200.528 147.535 200.528C148.51 200.528 149.272 199.896 149.272 199.082C149.272 198.409 148.865 197.944 148.195 197.858V197.804C148.735 197.674 149.06 197.243 149.06 196.655C149.06 195.938 148.373 195.363 147.511 195.363C146.572 195.363 145.96 195.89 145.898 196.744H146.496C146.548 196.214 146.92 195.9 147.488 195.9C148.055 195.9 148.434 196.235 148.434 196.737C148.434 197.25 148.038 197.612 147.477 197.612H146.879V198.139Z" fill="#172B4D"/>
<path d="M167.822 200.412H168.437V195.479H167.826L166.513 196.423V197.072L167.768 196.163H167.822V200.412ZM172.163 200.412H172.765V199.39H173.465V198.839H172.765V195.479H171.872C170.984 196.809 170.201 198.046 169.76 198.829V199.39H172.163V200.412ZM170.389 198.802C170.977 197.804 171.62 196.785 172.125 196.05H172.166V198.843H170.389V198.802Z" fill="#172B4D"/>
<path d="M21.9447 224.412H22.5599V219.479H21.9481L20.6356 220.423V221.072L21.89 220.163H21.9447V224.412ZM25.66 224.528C26.682 224.528 27.3827 223.844 27.3827 222.843C27.3827 221.872 26.7264 221.192 25.7899 221.192C25.3353 221.192 24.9867 221.332 24.7474 221.612H24.6927L24.8329 220.03H27.1024V219.479H24.351L24.0809 222.275H24.6586C24.8602 221.923 25.2294 221.722 25.6771 221.722C26.3231 221.722 26.7675 222.183 26.7675 222.86C26.7675 223.537 26.3265 223.988 25.6669 223.988C25.0858 223.988 24.662 223.632 24.6073 223.099H24.0023C24.057 223.95 24.7269 224.528 25.66 224.528Z" fill="#172B4D"/>
<path d="M46.5309 224.412H47.1461V219.479H46.5343L45.2218 220.423V221.072L46.4762 220.163H46.5309V224.412ZM50.3624 224.524C51.3741 224.524 52.0919 223.817 52.0919 222.826C52.0919 221.869 51.4117 221.175 50.4718 221.175C49.8839 221.175 49.4019 221.455 49.1593 221.934H49.1046C49.1388 220.621 49.5934 219.91 50.3966 219.91C50.8819 219.91 51.2545 220.19 51.3878 220.652H52.0201C51.8629 219.859 51.2408 219.363 50.4034 219.363C49.1969 219.363 48.5064 220.334 48.5064 222.029C48.5064 222.573 48.5851 223.027 48.7457 223.403C49.0533 224.128 49.6207 224.524 50.3624 224.524ZM50.3556 223.984C49.7232 223.984 49.2413 223.485 49.2413 222.826C49.2413 222.173 49.7096 221.708 50.3624 221.708C51.0152 221.708 51.4698 222.173 51.4698 222.846C51.4698 223.492 50.9879 223.984 50.3556 223.984Z" fill="#172B4D"/>
<path opacity="0.6" d="M71.1169 224.412H71.7321V219.479H71.1203L69.8078 220.423V221.072L71.0622 220.163H71.1169V224.412ZM73.4104 224.412H74.0564L76.2507 220.05V219.479H72.9865V220.03H75.6252V220.078L73.4104 224.412Z" fill="#172B4D"/>
<path d="M95.703 224.412H96.3182V219.479H95.7064L94.3939 220.423V221.072L95.6483 220.163H95.703V224.412ZM99.4764 224.528C100.522 224.528 101.254 223.937 101.254 223.092C101.254 222.45 100.847 221.951 100.228 221.834V221.78C100.738 221.64 101.052 221.219 101.052 220.679C101.052 219.91 100.399 219.363 99.4764 219.363C98.5536 219.363 97.9008 219.91 97.9008 220.679C97.9008 221.216 98.222 221.643 98.7245 221.78V221.834C98.1058 221.951 97.6991 222.45 97.6991 223.092C97.6991 223.937 98.4305 224.528 99.4764 224.528ZM99.4764 224.001C98.7928 224.001 98.3212 223.612 98.3212 223.048C98.3212 222.484 98.7928 222.094 99.4764 222.094C100.16 222.094 100.632 222.484 100.632 223.048C100.632 223.612 100.16 224.001 99.4764 224.001ZM99.4764 221.575C98.8954 221.575 98.5057 221.24 98.5057 220.737C98.5057 220.228 98.892 219.89 99.4764 219.89C100.061 219.89 100.447 220.228 100.447 220.737C100.447 221.24 100.057 221.575 99.4764 221.575Z" fill="#172B4D"/>
<path d="M119.743 224.412H120.358V219.479H119.746L118.434 220.423V221.072L119.688 220.163H119.743V224.412ZM123.407 224.524C124.613 224.524 125.304 223.554 125.304 221.858C125.304 221.315 125.225 220.86 125.065 220.484C124.757 219.756 124.186 219.363 123.448 219.363C122.436 219.363 121.718 220.071 121.718 221.062C121.718 222.019 122.399 222.713 123.338 222.713C123.926 222.713 124.408 222.433 124.651 221.954H124.665H124.678H124.706C124.671 223.267 124.217 223.978 123.414 223.978C122.928 223.978 122.556 223.697 122.422 223.236H121.79C121.947 224.029 122.569 224.524 123.407 224.524ZM123.448 222.18C122.795 222.18 122.34 221.715 122.34 221.042C122.34 220.396 122.822 219.903 123.455 219.903C124.087 219.903 124.569 220.402 124.569 221.062C124.569 221.715 124.101 222.18 123.448 222.18Z" fill="#172B4D"/>
<path d="M142.026 220.867V220.871H142.621V220.867C142.621 220.286 143.011 219.9 143.588 219.9C144.132 219.9 144.552 220.279 144.552 220.771C144.552 221.168 144.398 221.435 143.763 222.125L142.057 223.988V224.412H145.249V223.858H142.939V223.803L144.125 222.528C144.935 221.66 145.167 221.26 145.167 220.748C145.167 219.965 144.491 219.363 143.605 219.363C142.689 219.363 142.026 219.992 142.026 220.867ZM147.946 224.528C149.054 224.528 149.689 223.591 149.689 221.954C149.689 220.32 149.043 219.363 147.946 219.363C146.842 219.363 146.196 220.317 146.196 221.944C146.196 223.584 146.835 224.528 147.946 224.528ZM147.946 223.991C147.218 223.991 146.815 223.263 146.815 221.944C146.815 220.642 147.225 219.903 147.946 219.903C148.667 219.903 149.071 220.635 149.071 221.944C149.071 223.267 148.674 223.991 147.946 223.991Z" fill="#172B4D"/>
<path d="M166.612 220.867V220.871H167.207V220.867C167.207 220.286 167.597 219.9 168.174 219.9C168.718 219.9 169.138 220.279 169.138 220.771C169.138 221.168 168.984 221.435 168.349 222.125L166.643 223.988V224.412H169.835V223.858H167.525V223.803L168.711 222.528C169.521 221.66 169.753 221.26 169.753 220.748C169.753 219.965 169.077 219.363 168.191 219.363C167.275 219.363 166.612 219.992 166.612 220.867ZM172.054 224.412H172.669V219.479H172.057L170.745 220.423V221.072L171.999 220.163H172.054V224.412Z" fill="#172B4D"/>
<path d="M20.1884 244.867V244.871H20.7831V244.867C20.7831 244.286 21.1728 243.9 21.7504 243.9C22.2939 243.9 22.7143 244.279 22.7143 244.771C22.7143 245.168 22.5605 245.435 21.9247 246.125L20.2192 247.988V248.412H23.4116V247.858H21.101V247.803L22.287 246.528C23.0971 245.66 23.3295 245.26 23.3295 244.748C23.3295 243.965 22.6528 243.363 21.7675 243.363C20.8515 243.363 20.1884 243.992 20.1884 244.867ZM24.4199 244.867V244.871H25.0146V244.867C25.0146 244.286 25.4042 243.9 25.9819 243.9C26.5253 243.9 26.9457 244.279 26.9457 244.771C26.9457 245.168 26.7919 245.435 26.1562 246.125L24.4506 247.988V248.412H27.643V247.858H25.3325V247.803L26.5185 246.528C27.3286 245.66 27.561 245.26 27.561 244.748C27.561 243.965 26.8842 243.363 25.999 243.363C25.0829 243.363 24.4199 243.992 24.4199 244.867Z" fill="#172B4D"/>
<path opacity="0.6" d="M44.7745 244.867V244.871H45.3692V244.867C45.3692 244.286 45.7589 243.9 46.3365 243.9C46.88 243.9 47.3004 244.279 47.3004 244.771C47.3004 245.168 47.1466 245.435 46.5108 246.125L44.8053 247.988V248.412H47.9977V247.858H45.6871V247.803L46.8731 246.528C47.6832 245.66 47.9156 245.26 47.9156 244.748C47.9156 243.965 47.2389 243.363 46.3536 243.363C45.4376 243.363 44.7745 243.992 44.7745 244.867ZM50.045 246.139H50.6705C51.3712 246.139 51.8053 246.494 51.8053 247.065C51.8053 247.605 51.3438 247.991 50.6944 247.991C50.0587 247.991 49.6143 247.653 49.5597 247.126H48.9649C49.0094 247.971 49.6998 248.528 50.7013 248.528C51.6754 248.528 52.4376 247.896 52.4376 247.082C52.4376 246.409 52.0309 245.944 51.3609 245.858V245.804C51.901 245.674 52.2257 245.243 52.2257 244.655C52.2257 243.938 51.5387 243.363 50.6773 243.363C49.7374 243.363 49.1256 243.89 49.0641 244.744H49.6622C49.7135 244.214 50.086 243.9 50.6534 243.9C51.2208 243.9 51.6002 244.235 51.6002 244.737C51.6002 245.25 51.2037 245.612 50.6432 245.612H50.045V246.139Z" fill="#172B4D"/>
<path d="M69.3606 244.867V244.871H69.9553V244.867C69.9553 244.286 70.345 243.9 70.9226 243.9C71.4661 243.9 71.8865 244.279 71.8865 244.771C71.8865 245.168 71.7327 245.435 71.0969 246.125L69.3914 247.988V248.412H72.5837V247.858H70.2732V247.803L71.4592 246.528C72.2693 245.66 72.5017 245.26 72.5017 244.748C72.5017 243.965 71.825 243.363 70.9397 243.363C70.0237 243.363 69.3606 243.992 69.3606 244.867ZM75.7727 248.412H76.3743V247.39H77.075V246.839H76.3743V243.479H75.4822C74.5935 244.809 73.8108 246.046 73.3699 246.829V247.39H75.7727V248.412ZM73.9988 246.802C74.5867 245.804 75.2292 244.785 75.7351 244.05H75.7761V246.843H73.9988V246.802Z" fill="#172B4D"/>
<path d="M93.9467 244.867V244.871H94.5414V244.867C94.5414 244.286 94.931 243.9 95.5087 243.9C96.0521 243.9 96.4725 244.279 96.4725 244.771C96.4725 245.168 96.3187 245.435 95.683 246.125L93.9774 247.988V248.412H97.1698V247.858H94.8593V247.803L96.0453 246.528C96.8553 245.66 97.0878 245.26 97.0878 244.748C97.0878 243.965 96.411 243.363 95.5258 243.363C94.6097 243.363 93.9467 243.992 93.9467 244.867ZM99.8358 248.528C100.858 248.528 101.558 247.844 101.558 246.843C101.558 245.872 100.902 245.192 99.9657 245.192C99.5111 245.192 99.1625 245.332 98.9232 245.612H98.8685L99.0087 244.03H101.278V243.479H98.5267L98.2567 246.275H98.8344C99.036 245.923 99.4052 245.722 99.8529 245.722C100.499 245.722 100.943 246.183 100.943 246.86C100.943 247.537 100.502 247.988 99.8427 247.988C99.2616 247.988 98.8378 247.632 98.7831 247.099H98.1781C98.2328 247.95 98.9027 248.528 99.8358 248.528Z" fill="#172B4D"/>
<path d="M117.986 244.867V244.871H118.581V244.867C118.581 244.286 118.971 243.9 119.548 243.9C120.092 243.9 120.512 244.279 120.512 244.771C120.512 245.168 120.358 245.435 119.723 246.125L118.017 247.988V248.412H121.21V247.858H118.899V247.803L120.085 246.528C120.895 245.66 121.128 245.26 121.128 244.748C121.128 243.965 120.451 243.363 119.566 243.363C118.65 243.363 117.986 243.992 117.986 244.867ZM123.992 248.524C125.004 248.524 125.721 247.817 125.721 246.826C125.721 245.869 125.041 245.175 124.101 245.175C123.513 245.175 123.031 245.455 122.789 245.934H122.734C122.768 244.621 123.223 243.91 124.026 243.91C124.511 243.91 124.884 244.19 125.017 244.652H125.65C125.492 243.859 124.87 243.363 124.033 243.363C122.826 243.363 122.136 244.334 122.136 246.029C122.136 246.573 122.214 247.027 122.375 247.403C122.683 248.128 123.25 248.524 123.992 248.524ZM123.985 247.984C123.353 247.984 122.871 247.485 122.871 246.826C122.871 246.173 123.339 245.708 123.992 245.708C124.645 245.708 125.099 246.173 125.099 246.846C125.099 247.492 124.617 247.984 123.985 247.984Z" fill="#172B4D"/>
<path d="M142.026 244.867V244.871H142.621V244.867C142.621 244.286 143.011 243.9 143.588 243.9C144.132 243.9 144.552 244.279 144.552 244.771C144.552 245.168 144.398 245.435 143.763 246.125L142.057 247.988V248.412H145.249V247.858H142.939V247.803L144.125 246.528C144.935 245.66 145.167 245.26 145.167 244.748C145.167 243.965 144.491 243.363 143.605 243.363C142.689 243.363 142.026 243.992 142.026 244.867ZM146.493 248.412H147.139L149.334 244.05V243.479H146.07V244.03H148.708V244.078L146.493 248.412Z" fill="#172B4D"/>
<path d="M166.066 244.867V244.871H166.661V244.867C166.661 244.286 167.05 243.9 167.628 243.9C168.171 243.9 168.592 244.279 168.592 244.771C168.592 245.168 168.438 245.435 167.802 246.125L166.097 247.988V248.412H169.289V247.858H166.978V247.803L168.164 246.528C168.975 245.66 169.207 245.26 169.207 244.748C169.207 243.965 168.53 243.363 167.645 243.363C166.729 243.363 166.066 243.992 166.066 244.867ZM172.013 248.528C173.059 248.528 173.79 247.937 173.79 247.092C173.79 246.45 173.384 245.951 172.765 245.834V245.78C173.274 245.64 173.589 245.219 173.589 244.679C173.589 243.91 172.936 243.363 172.013 243.363C171.09 243.363 170.437 243.91 170.437 244.679C170.437 245.216 170.759 245.643 171.261 245.78V245.834C170.643 245.951 170.236 246.45 170.236 247.092C170.236 247.937 170.967 248.528 172.013 248.528ZM172.013 248.001C171.33 248.001 170.858 247.612 170.858 247.048C170.858 246.484 171.33 246.094 172.013 246.094C172.697 246.094 173.168 246.484 173.168 247.048C173.168 247.612 172.697 248.001 172.013 248.001ZM172.013 245.575C171.432 245.575 171.042 245.24 171.042 244.737C171.042 244.228 171.429 243.89 172.013 243.89C172.598 243.89 172.984 244.228 172.984 244.737C172.984 245.24 172.594 245.575 172.013 245.575Z" fill="#172B4D"/>
<path d="M18.3067 135.412V132.841H20.9654V131.896H18.3067V130.05H21.2159V129.07H17.1729V135.412H18.3067ZM24.3755 131.373C25.0303 131.373 25.461 131.83 25.483 132.542H23.2198C23.2681 131.839 23.7252 131.373 24.3755 131.373ZM25.4918 134.089C25.3336 134.445 24.96 134.643 24.4195 134.643C23.7032 134.643 23.2418 134.142 23.2154 133.342V133.285H26.5728V132.933C26.5728 131.417 25.751 130.507 24.3799 130.507C22.9869 130.507 22.1212 131.479 22.1212 133.025C22.1212 134.572 22.9737 135.508 24.3887 135.508C25.5225 135.508 26.3179 134.963 26.5245 134.089H25.4918ZM30.3389 135.491C31.5518 135.491 32.3121 134.537 32.3121 133.008C32.3121 131.47 31.5562 130.525 30.3389 130.525C29.6797 130.525 29.126 130.846 28.8755 131.369H28.8008V128.745H27.711V135.412H28.7613V134.651H28.836C29.1085 135.179 29.6666 135.491 30.3389 135.491ZM29.9962 131.452C30.7388 131.452 31.1915 132.041 31.1915 133.008C31.1915 133.975 30.7432 134.563 29.9962 134.563C29.2491 134.563 28.7833 133.966 28.7833 133.008C28.7833 132.05 29.2535 131.452 29.9962 131.452ZM33.4063 135.412H34.4962V132.634C34.4962 131.962 34.9883 131.522 35.6959 131.522C35.8804 131.522 36.1705 131.553 36.254 131.584V130.573C36.1529 130.542 35.9595 130.525 35.8013 130.525C35.1817 130.525 34.6631 130.876 34.5313 131.351H34.4566V130.604H33.4063V135.412ZM41.334 130.604H40.2442V133.403C40.2442 134.115 39.8575 134.55 39.15 134.55C38.4996 134.55 38.1964 134.19 38.1964 133.456V130.604H37.1065V133.729C37.1065 134.854 37.7217 135.508 38.772 135.508C39.5059 135.508 39.9761 135.196 40.209 134.647H40.2838V135.412H41.334V130.604ZM44.3135 134.634C43.8301 134.634 43.483 134.392 43.483 133.988C43.483 133.597 43.7686 133.377 44.3795 133.337L45.4649 133.267V133.649C45.4649 134.208 44.9727 134.634 44.3135 134.634ZM43.9927 135.491C44.6212 135.491 45.1485 135.218 45.4166 134.752H45.4913V135.412H46.5416V132.129C46.5416 131.109 45.8472 130.507 44.6124 130.507C43.4698 130.507 42.6744 131.048 42.5865 131.896H43.6148C43.7159 131.571 44.0587 131.395 44.5596 131.395C45.1485 131.395 45.4649 131.659 45.4649 132.129V132.533L44.2256 132.608C43.0567 132.678 42.4019 133.179 42.4019 134.049C42.4019 134.928 43.0655 135.491 43.9927 135.491ZM48.2335 137.156C49.3101 137.156 49.8243 136.761 50.233 135.565L51.9688 130.604H50.8174L49.6968 134.357H49.6221L48.4971 130.604H47.3018L49.0201 135.434L48.963 135.645C48.8223 136.088 48.563 136.264 48.1016 136.264C48.0269 136.264 47.8643 136.26 47.8028 136.247V137.139C47.8731 137.152 48.1675 137.156 48.2335 137.156ZM55.2427 130.925V130.942H56.3062V130.925C56.3062 130.279 56.7545 129.844 57.418 129.844C58.0421 129.844 58.4991 130.248 58.4991 130.806C58.4991 131.254 58.2838 131.584 57.418 132.463L55.3043 134.625V135.412H59.7076V134.449H56.8599V134.375L58.1871 133.043C59.2637 131.979 59.6109 131.417 59.6109 130.736C59.6109 129.677 58.7056 128.912 57.4532 128.912C56.1524 128.912 55.2427 129.738 55.2427 130.925ZM63.3023 135.57C64.8184 135.57 65.7193 134.339 65.7193 132.243C65.7193 130.138 64.8052 128.912 63.3023 128.912C61.795 128.912 60.8809 130.138 60.8809 132.234C60.8809 134.339 61.7818 135.57 63.3023 135.57ZM63.3023 134.629C62.4981 134.629 62.0279 133.794 62.0279 132.234C62.0279 130.688 62.5069 129.857 63.3023 129.857C64.0977 129.857 64.5723 130.683 64.5723 132.234C64.5723 133.794 64.1065 134.629 63.3023 134.629ZM66.897 130.925V130.942H67.9605V130.925C67.9605 130.279 68.4088 129.844 69.0723 129.844C69.6964 129.844 70.1534 130.248 70.1534 130.806C70.1534 131.254 69.938 131.584 69.0723 132.463L66.9586 134.625V135.412H71.3619V134.449H68.5142V134.375L69.8414 133.043C70.918 131.979 71.2652 131.417 71.2652 130.736C71.2652 129.677 70.3599 128.912 69.1075 128.912C67.8067 128.912 66.897 129.738 66.897 130.925ZM74.1568 135.412H75.2906V129.07H74.1612L72.5045 130.23V131.32L74.0821 130.213H74.1568V135.412Z" fill="#172B4D"/>
<path d="M158.939 136.412C158.972 136.412 159.002 136.406 159.03 136.395C159.057 136.383 159.083 136.366 159.106 136.343C159.148 136.302 159.168 136.251 159.165 136.189C159.163 136.128 159.139 136.077 159.092 136.035V136.035L155.709 132.917L159.092 129.791C159.139 129.75 159.163 129.7 159.165 129.641C159.168 129.582 159.148 129.529 159.106 129.484C159.064 129.438 159.012 129.414 158.949 129.412C158.887 129.41 158.835 129.429 158.793 129.47V129.47L155.235 132.753C155.212 132.775 155.195 132.801 155.183 132.828C155.171 132.855 155.165 132.885 155.165 132.917C155.165 132.944 155.171 132.972 155.183 132.999C155.195 133.026 155.212 133.051 155.235 133.074V133.074L158.793 136.357C158.811 136.375 158.833 136.389 158.859 136.398C158.885 136.407 158.911 136.412 158.939 136.412Z" stroke="#1F62FF" stroke-width="0.546358"/>
<path d="M172.801 136.412C172.769 136.412 172.739 136.406 172.711 136.395C172.683 136.383 172.658 136.366 172.634 136.343C172.593 136.302 172.573 136.251 172.575 136.189C172.578 136.128 172.602 136.077 172.648 136.035V136.035L176.032 132.917L172.648 129.791C172.602 129.75 172.578 129.7 172.575 129.641C172.573 129.582 172.593 129.529 172.634 129.484C172.676 129.438 172.728 129.414 172.791 129.412C172.854 129.41 172.906 129.429 172.948 129.47V129.47L176.505 132.753C176.529 132.775 176.546 132.801 176.558 132.828C176.569 132.855 176.575 132.885 176.575 132.917C176.575 132.944 176.569 132.972 176.558 132.999C176.546 133.026 176.529 133.051 176.505 133.074V133.074L172.948 136.357C172.929 136.375 172.907 136.389 172.882 136.398C172.856 136.407 172.829 136.412 172.801 136.412Z" stroke="#1F62FF" stroke-width="0.546358"/>
<circle cx="24" cy="204.412" r="1" fill="#1F62FF"/>
<path d="M154.271 376.075C134.947 376.075 119.282 372.648 119.282 368.421C119.282 364.194 134.947 360.767 154.271 360.767C173.595 360.767 189.26 364.194 189.26 368.421C189.26 372.648 173.595 376.075 154.271 376.075Z" fill="#E8E8E8"/>
<path fill-rule="evenodd" clip-rule="evenodd" d="M132.887 273.125L135.769 280.137L140.979 275.216L141.484 270.844L136.996 270.246L132.887 273.125Z" fill="#F8BFA7"/>
<path fill-rule="evenodd" clip-rule="evenodd" d="M200.994 171.649L202.63 169.544C203.068 168.81 203.284 168.411 203.284 168.411C203.346 167.711 204.204 166.055 205.727 163.392L208.5 157.142L211.403 153.028C211.959 152.915 212.22 153.017 212.26 153.456C212.299 153.894 211.674 155.34 210.458 157.913L209.339 160.855C209.674 160.383 209.89 159.985 210.123 159.774C210.293 159.569 210.583 159.291 210.929 158.944C211.491 158.893 211.877 158.984 212.008 159.036C212.207 159.144 212.354 159.383 212.507 159.685L212.569 160.374C212.955 160.466 213.279 160.563 213.41 160.614C213.608 160.723 213.739 160.774 213.75 160.899L213.852 162.027L214.845 162.569L214.902 163.195C214.794 164.089 214.663 164.732 214.577 165.182C214.486 165.569 214.003 166.497 213.191 167.959L209.942 171.031L208.795 171.577L207.432 173.91L206.745 173.972L200.994 171.649Z" fill="#FFC9B2"/>
<path fill-rule="evenodd" clip-rule="evenodd" d="M198.27 173.971L200.536 169.642L208.985 173.496L205.824 177.967L198.27 173.971Z" fill="#2979FF"/>
<path fill-rule="evenodd" clip-rule="evenodd" d="M136.005 365.205L136.241 367.823L135.739 369.746C140.067 370.705 143.452 370.751 145.89 369.827L145.377 368.231L146.142 365.815L136.005 365.205Z" fill="#1C0E56"/>
<path fill-rule="evenodd" clip-rule="evenodd" d="M162.673 364.754L163.395 367.753L163.218 370.083C167.892 370.478 171.389 369.959 173.771 368.518L172.968 366.753L173.287 363.865L162.673 364.754Z" fill="#1C0E56"/>
<path fill-rule="evenodd" clip-rule="evenodd" d="M130.899 272.768L132.116 275.577L139.513 270.686L137.088 267.304L130.899 272.768Z" fill="#2979FF"/>
<path fill-rule="evenodd" clip-rule="evenodd" d="M155.061 296.933C155.564 301.81 157.571 316.397 157.774 317.956C157.87 319.02 159.233 324.388 159.301 325.833C159.893 341.431 161.182 343.208 162.075 356.57C161.531 358.197 162.329 359.387 162.577 362.141C162.64 362.83 162.526 364.355 162.164 366.596C165.004 367.476 167.239 367.905 168.948 368.066C171.472 368.217 174.2 365.068 173.996 364.203C173.306 361.425 174.025 359.656 173.437 358.006C174.096 341.664 171.426 331.555 171.461 326.377C171.501 323.344 171.36 319.002 171.411 316.789C171.645 304.082 171.958 295.724 172.253 287.177C171.899 272.126 171.408 263.903 170.831 262.377C163.51 254.96 157.897 251.175 154.128 251.137C150.354 251.035 144.78 254.631 137.468 261.917C135.678 273.375 134.777 281.472 134.827 286.2C134.884 288.909 135.137 298.668 135.717 315.529C135.728 316.348 136.011 318.09 136.039 319.097C136.033 319.729 136.22 320.406 136.231 321.226C136.237 321.982 136.078 324.395 136.129 325.653C136.168 327.479 136.382 332.635 136.003 337.465C136.008 338.222 136.367 360.278 136.339 361.354C135.693 366.713 134.482 367.201 136.898 367.551C138.488 367.786 142.098 367.46 147.791 366.568C148.738 352.03 149.328 341.88 149.572 336.241C149.737 333.197 149.579 327.279 149.806 322.84C149.942 320.178 152.299 304.566 153.337 286.171C153.45 284.646 153.093 286.256 153.263 285.357C154.248 285.142 154.405 291.06 155.061 296.933Z" fill="#052962"/>
<path fill-rule="evenodd" clip-rule="evenodd" d="M131.682 211.344C129.529 214.176 128.218 216.493 127.632 218.431C124.382 229.466 124.128 239.289 123.351 243.316C125.051 253.025 127.613 263.159 131.037 273.718L136.254 269.729C136.629 259.142 135.808 250.044 133.842 242.307C135.833 232.767 135.186 237.537 135.722 230.83C136.263 224.185 136.719 216.606 136.857 216.028C137.925 212.414 136.917 210.369 133.832 209.893L131.682 211.344Z" fill="#031E48"/>
<path fill-rule="evenodd" clip-rule="evenodd" d="M146.805 205.914L134.206 209.193C135.356 221.938 136.016 229.247 136.191 231.184C136.625 235.994 136.907 239.118 137.036 240.555C137.065 240.867 137.403 241.844 137.251 242.929C137.104 244.076 137.589 245.984 137.533 246.053C136.233 255.932 135.239 263.643 134.488 269.19C135.205 269.503 136.565 270.01 138.631 270.706C146.843 273.618 150.789 273.64 150.789 273.64L153.352 265.283L156.027 273.419C166.057 272.199 172.503 270.798 175.376 269.342C173.419 256.67 172.618 247.799 172.98 242.791C174.15 228.01 176.961 219.631 176.961 219.631C172.486 213.737 170.618 208.993 171.222 205.285C168.648 205.896 166.972 206.047 166.255 205.734C165.527 203.91 163.834 205.952 163.834 205.952C154.729 205.64 150.146 205.487 150.146 205.487L146.793 205.789L146.805 205.914Z" fill="#031E48"/>
<path fill-rule="evenodd" clip-rule="evenodd" d="M163.217 204.307L162.863 200.382C164.235 200.824 165.287 201.231 166.019 201.605C166.75 201.978 167.568 201.905 168.347 201.395C169.149 200.443 169.694 199.452 169.919 198.426C170.926 194.127 171.1 189.024 171.057 187.144C170.953 184.578 170.556 182.29 169.861 180.217C168.909 178.104 167.675 177.085 166.154 177.097C164.633 177.108 163.174 177.114 161.899 177.041L150.984 181.92L151.564 194.681L150.081 203.546L163.217 204.307Z" fill="#F9C7B2"/>
<path fill-rule="evenodd" clip-rule="evenodd" d="M146.393 206.038L157.063 207.442C164.331 207.259 167.626 206.962 166.887 206.555C166.111 204.326 164.459 202.311 164.459 202.311C155.211 201.794 150.588 201.535 150.588 201.535L146.393 206.038Z" fill="#2979FF"/>
<path fill-rule="evenodd" clip-rule="evenodd" d="M175.828 222.73C180.45 217.523 183.889 213.306 186.223 210.259C188.558 207.213 191.256 203.251 194.402 198.619C197.146 194.465 199.373 190.924 201.007 187.877C202.642 184.831 204.799 181.233 207.354 177.096L197.778 171.847C195.383 177.042 192.908 181.361 190.487 184.857C188.065 188.352 186.144 191.046 184.655 192.882C179.982 197.526 177.528 199.953 177.287 200.101C175.454 201.653 173.029 203.699 169.891 206.314L172.346 214.474L175.828 222.73Z" fill="#031E48"/>
<path fill-rule="evenodd" clip-rule="evenodd" d="M168.555 174.864C169.353 175.43 170.112 176.253 170.535 180.932C170.174 183.833 169.408 186.388 168.891 189.621C168.83 190.328 167.132 184.617 167.003 185.266C165.726 183.533 163.452 187.308 166.782 191.787C165.837 194.422 164.415 197.291 163.86 198.042C163.468 198.524 162.851 199.281 161.847 199.881C161.432 200.11 160.281 200.469 158.446 200.826C156.334 200.889 154.571 200.665 153.161 200.219C151.751 199.773 150.621 198.982 149.901 197.9C147.97 194.441 147.045 191.784 147.065 189.934C147.074 188.658 146.296 186.243 146.523 183.928C146.833 181.159 148.273 178.479 149.629 176.955C152.107 174.054 162.3 166.952 166.094 169.669C169.888 172.386 167.487 174.068 168.555 174.864Z" fill="#6D4C41"/>
</svg>
